<?xml version="1.0" standalone="no"?>
<!DOCTYPE svg PUBLIC "-//W3C//DTD SVG 1.1//EN" "http://www.w3.org/Graphics/SVG/1.1/DTD/svg11.dtd" >
<svg xmlns="http://www.w3.org/2000/svg">
<metadata></metadata>
<defs>
<font id="gunnarregular" horiz-adv-x="995" >
<font-face units-per-em="2048" ascent="1638" descent="-410" />
<missing-glyph horiz-adv-x="409" />
<glyph horiz-adv-x="0" />
<glyph horiz-adv-x="682" />
<glyph unicode=" "  horiz-adv-x="409" />
<glyph unicode="&#x09;" horiz-adv-x="409" />
<glyph unicode="&#xa0;" horiz-adv-x="409" />
<glyph unicode="!" horiz-adv-x="557" d="M115 166q0 -68 49 -117t117 -49t115.5 49t47.5 117t-48 116t-115 48q-68 0 -117 -48.5t-49 -115.5zM141 573q0 -45 33 -77.5t78 -32.5h41q51 0 86 36t35 87v796q0 47 -31 79t-76 32h-41q-51 0 -88 -36t-37 -89v-795z" />
<glyph unicode="&#x22;" horiz-adv-x="862" d="M90 1337q0 -68 42 -108.5t99 -40.5q18 0 29 2h4q-14 -129 -129 -148q-16 0 -28.5 -13t-12.5 -25q0 -23 15.5 -39.5t35.5 -12.5q86 4 149.5 52.5t96.5 120t33 145.5q0 98 -47 159.5t-129 61.5q-63 0 -110.5 -45t-47.5 -109zM453 1337q0 -68 42 -108.5t99 -40.5q18 0 29 2 h4q-6 -127 -129 -148q-16 0 -28.5 -14t-12.5 -31q0 -22 15 -35.5t36 -9.5q86 4 149.5 52.5t96 120t32.5 145.5q0 98 -47 159.5t-129 61.5q-63 0 -110 -45t-47 -109z" />
<glyph unicode="#" horiz-adv-x="1646" d="M61 459q-4 -33 19.5 -58.5t58.5 -25.5h148q37 0 59.5 -29t15.5 -65l-28 -189q-6 -37 16.5 -64.5t59.5 -27.5h92q29 0 51 17.5t27 43.5l41 250q4 27 25.5 45.5t49.5 18.5h49q37 0 60.5 -29t17.5 -65l-28 -189q-6 -37 16.5 -64.5t58.5 -27.5h93q29 0 51 17.5t26 43.5 l41 250q4 27 25.5 45.5t50.5 18.5h238q29 0 52 20.5t26 50.5l8 66q4 33 -19.5 58.5t-58.5 25.5h-166q-33 0 -55.5 22.5t-22.5 55.5q0 10 2 16l21 109q6 27 27.5 45t50.5 18h237q31 0 54.5 20.5t23.5 51.5v65q0 35 -22.5 60.5t-55.5 25.5h-166q-37 0 -60.5 29t-15.5 64 l39 182q8 35 -16.5 63.5t-60.5 28.5h-93q-27 0 -48 -17.5t-27 -45.5l-52 -242q-6 -27 -27.5 -44.5t-47.5 -17.5h-50q-39 0 -62.5 29t-14.5 64l39 182q8 35 -16.5 63.5t-61.5 28.5h-92q-27 0 -48.5 -17.5t-27.5 -45.5l-51 -242q-6 -27 -28 -44.5t-48 -17.5h-219 q-31 0 -54.5 -20.5t-23.5 -50.5v-66q0 -35 21.5 -60.5t56.5 -25.5h145q37 0 60.5 -28.5t17.5 -63.5l-23 -111q-4 -27 -25.5 -45t-49.5 -18h-220q-31 0 -52 -20.5t-25 -49.5zM698 674q0 10 2 16l21 109q6 27 27.5 45t50.5 18h49q37 0 60.5 -28.5t17.5 -63.5l-23 -111 q-4 -27 -25.5 -45t-50.5 -18h-51q-33 0 -55.5 22.5t-22.5 55.5z" />
<glyph unicode="$" horiz-adv-x="1228" d="M78 1032q0 178 113.5 298t312.5 140v80q0 43 30.5 74t71.5 31h2q41 0 72 -31t31 -74v-77q160 -12 272 -72q31 -18 48.5 -48t17.5 -63q0 -51 -37 -88l-4 -4q-41 -37 -88 -37q-25 0 -58 15q-78 41 -180 49v-357l78 -12q98 -14 164.5 -43t113.5 -72q113 -106 113 -307 q0 -182 -121 -295.5t-319 -138.5v-127q0 -43 -31 -72.5t-72 -29.5q-43 0 -73.5 29.5t-30.5 72.5v119q-221 6 -365 96q-29 16 -43 44t-14 61q0 53 35 88l12 10q35 37 86 37q35 0 66 -19q102 -59 249 -63v370l-65 9q-90 12 -163 43.5t-120 79.5q-104 104 -104 284zM352 1042 q0 -63 43 -104q47 -45 135 -57v342q-86 -13 -132 -62t-46 -119zM682 250q92 10 141 55t49 121q0 80 -45 123q-27 27 -58.5 36t-86.5 17v-352z" />
<glyph unicode="%" horiz-adv-x="1349" d="M94 1137q0 -371 268 -371q272 0 273 371q0 369 -273 368q-147 0 -207.5 -103.5t-60.5 -264.5zM154 49q0 18 10 35l831 1368q8 16 22.5 24.5t31.5 8.5h79q31 0 50.5 -19.5t19.5 -46.5q0 -16 -10 -37l-832 -1368q-8 -12 -23.5 -22t-29.5 -10h-82q-29 0 -48 20.5t-19 46.5z M297 1137q0 78 13.5 122t51.5 44q70 0 70 -166q0 -168 -70 -168q-39 0 -52 44t-13 124zM717 330q0 -162 60.5 -265.5t207.5 -103.5t209.5 104.5t62.5 264.5q0 162 -62 266t-210 104q-268 0 -268 -370zM920 330q0 80 13 124t52 44q37 0 50.5 -44t13.5 -124q0 -78 -13.5 -122 t-50.5 -44q-39 0 -52 44t-13 122z" />
<glyph unicode="&#x26;" horiz-adv-x="1427" d="M78 428q0 131 67.5 224t194.5 173q10 6 10 21q0 10 -6 16q-86 96 -120 163t-34 142q0 94 52.5 172t147.5 122t218 44q127 0 212 -45t126 -125q6 -14 6 -30q0 -20 -10 -38t-31 -26l-86 -33q-14 -6 -28 -6q-47 0 -70 41q-37 63 -133 64q-63 0 -108.5 -35t-45.5 -105 q0 -37 28 -76.5t85 -105.5l176 -182l283 -295q6 -8 18 -8t19 12q31 49 51 133q8 45 43 71.5t80 26.5q41 0 69.5 -29.5t28.5 -70.5q0 -14 -2 -20q-31 -152 -123 -275q-14 -16 0 -31q37 -39 82 -57q33 -12 52.5 -39.5t19.5 -60.5q0 -14 -2 -21l-2 -14q-8 -41 -41 -65.5 t-74 -20.5q-61 6 -103.5 27.5t-85.5 68.5q-6 8 -16 8t-16 -6q-92 -76 -187.5 -106.5t-230.5 -30.5q-150 0 -266.5 53t-182 150.5t-65.5 224.5zM350 455q0 -55 33 -108.5t100.5 -88.5t165.5 -35q113 0 205 70q10 6 10 18q0 10 -8 19l-303 315q-18 23 -51 23q-25 0 -45 -17 q-51 -41 -79 -91t-28 -105z" />
<glyph unicode="'" horiz-adv-x="471" d="M74 1337q0 -68 42 -108.5t99 -40.5q18 0 29 2h6q-4 -66 -38 -102.5t-87 -45.5q-20 0 -32.5 -14t-12.5 -37q0 -18 12 -30.5t33 -8.5q88 4 152.5 52.5t97.5 120t33 145.5q0 98 -46.5 158.5t-130.5 60.5q-63 0 -110 -45t-47 -107z" />
<glyph unicode="(" horiz-adv-x="546" d="M84 725q0 -279 48 -508t122 -383q14 -35 46 -55.5t69 -20.5q35 0 61 19q31 14 47.5 41.5t16.5 60.5q0 27 -13 51q-125 311 -125 795q0 238 33 440.5t92 347.5q12 29 13 54q0 33 -16.5 60.5t-47.5 43.5q-27 18 -63 19q-37 0 -68 -19.5t-45 -54.5q-74 -156 -122 -384 t-48 -507z" />
<glyph unicode=")" horiz-adv-x="540" d="M53 -109q0 -33 15.5 -62.5t44.5 -49.5q26 -19 61 -19q37 0 68.5 20.5t46.5 57.5q74 152 121 379t47 508q0 279 -47.5 506t-120.5 381q-14 35 -46 55.5t-69 20.5q-35 0 -61 -19q-29 -16 -44.5 -46t-15.5 -62q0 -27 8 -45q61 -150 93 -350.5t32 -440.5q0 -238 -32.5 -439.5 t-92.5 -346.5q-8 -23 -8 -48z" />
<glyph unicode="*" horiz-adv-x="679" d="M33 1239q0 -29 20.5 -52.5t52.5 -25.5q20 -2 62 -2q27 0 119 6v-4q-45 -27 -150 -102q-27 -25 -26 -60q0 -43 34 -67l15 -14q20 -12 43 -13q25 0 46 14.5t30 38.5q25 66 40 123q14 49 17 54h4q16 -86 53 -181q10 -23 31.5 -36t46.5 -13t45 13l12 14q33 27 33 65 q0 37 -29 58q-72 59 -143 106v4q92 -6 115 -6q39 0 59 2q33 2 55.5 27.5t22.5 56.5q0 14 -2 21l-8 18q-8 25 -28.5 39t-45.5 14t-45 -14q-63 -39 -145 -111l-5 5q43 109 62 176q2 6 2 18q0 33 -23.5 56.5t-58.5 23.5h-16q-33 0 -57.5 -23.5t-24.5 -56.5q0 -14 2 -22 q20 -80 61 -172h-4q-55 51 -145 106q-20 14 -45 14q-23 0 -44.5 -14t-29.5 -39l-4 -18q-4 -8 -4 -27z" />
<glyph unicode="+" horiz-adv-x="1228" d="M147 532q0 -51 36 -86.5t87 -35.5h717q49 0 86 35.5t37 86.5t-37 86t-86 35h-717q-53 0 -88 -34.5t-35 -86.5zM508 166q0 -49 36 -86t87 -37t86 37t35 86v717q0 53 -35 88t-86 35t-87 -35t-36 -88v-717z" />
<glyph unicode="," horiz-adv-x="550" d="M106 86q2 -63 43 -105t99 -42q18 0 26 2l5 -2q-8 -121 -127 -142q-16 -4 -28.5 -17t-12.5 -34q0 -18 14 -31.5t35 -11.5q86 6 148.5 54t94 118t31.5 143q0 100 -45 159t-133 59q-63 0 -106.5 -43t-43.5 -107z" />
<glyph unicode="-" horiz-adv-x="917" d="M59 653q0 -51 36 -87t87 -36h553q49 0 86 36t37 87t-37 86t-86 35h-553q-53 0 -88 -34.5t-35 -86.5z" />
<glyph unicode="." horiz-adv-x="518" d="M98 141q0 66 48.5 113t113.5 47q66 0 113 -47t47 -113t-47 -113.5t-113 -47.5q-65 0 -113.5 48t-48.5 113z" />
<glyph unicode="/" horiz-adv-x="634" d="M72 109q-6 -57 28.5 -100.5t89.5 -43.5q43 0 75 27.5t40 68.5l256 1323q2 8 2 25q0 49 -34.5 83t-86.5 34q-41 0 -74.5 -28t-43.5 -66z" />
<glyph unicode="0" horiz-adv-x="1148" d="M94 731q0 -330 107.5 -539.5t369.5 -209.5q266 0 375 209.5t109 539.5t-108.5 539t-375.5 209q-262 0 -369.5 -210t-107.5 -538zM365 731q0 225 44 356.5t162 131.5q121 0 167 -131.5t46 -356.5t-46 -357t-167 -132q-119 0 -162.5 131t-43.5 358z" />
<glyph unicode="1" horiz-adv-x="636" d="M53 1292q0 -29 20.5 -53.5t41.5 -24.5q25 0 51.5 -31.5t26.5 -72.5v-1006q0 -43 30.5 -73.5t73.5 -30.5h63q45 0 76 30.5t31 73.5v1268q0 43 -30.5 75t-76.5 32h-176q-39 0 -62.5 -29t-41.5 -78l-21 -53q-6 -12 -6 -27z" />
<glyph unicode="2" horiz-adv-x="1003" d="M59 1186q0 -45 37 -74l84 -55q20 -14 47 -15q25 0 48.5 13.5t33.5 38.5q25 59 69 93t95 34q76 0 119 -49.5t43 -118.5q0 -102 -78 -219l-461 -705q-12 -20 -12 -45q0 -33 22.5 -57.5t57.5 -24.5h704q35 0 60.5 25.5t25.5 60.5v88q0 35 -25.5 59.5t-60.5 24.5h-196 q-57 0 -84 10.5t-27 36.5q0 31 37 88l199 310q51 78 80.5 170t29.5 176q0 121 -48 218t-144.5 154.5t-235.5 57.5q-145 0 -248.5 -69t-162.5 -187q-8 -16 -9 -39z" />
<glyph unicode="3" horiz-adv-x="1021" d="M66 223q0 23 11 45.5t29 36.5l48 39q41 29 79 29q49 0 78 -41q37 -41 71 -62.5t87 -21.5q111 0 160 60.5t49 154.5q0 84 -69.5 140t-176.5 56q-27 0 -50.5 18.5t-23.5 51.5v113q0 23 15.5 41t42.5 20h-4q39 0 86 10.5t75 38.5q16 20 29.5 52t13.5 63q0 23 -4 33 q-18 76 -80 106q-18 10 -43 11q-33 0 -59.5 -15.5t-60.5 -44.5q-45 -41 -82 -41q-23 0 -49 14l-58 35q-43 25 -43 76q0 41 25 74q18 29 54 63.5t87 59.5q88 41 184 41q53 0 103 -13q119 -33 196 -112q98 -111 99 -267q0 -168 -94 -292q153 -101 153 -324q0 -135 -52 -245.5 t-160.5 -175t-268.5 -64.5q-135 0 -221 43t-158 137q-18 29 -18 57z" />
<glyph unicode="4" horiz-adv-x="1032" d="M12 385q0 -27 18.5 -43t51.5 -16h393q29 0 50.5 -21.5t21.5 -50.5v-150q0 -41 31.5 -72.5t72.5 -31.5h66q41 0 71.5 31.5t30.5 72.5v162q0 25 18.5 42.5t43.5 17.5h4q29 0 50 21.5t21 51.5v113q0 31 -21.5 54.5t-51.5 23.5h-15q-20 0 -34.5 13t-14.5 32v739 q0 43 -30.5 74t-71.5 31h-92q-37 0 -66 -18.5t-45 -51.5l-494 -989q-8 -16 -8 -35zM395 598q0 10 11 35l118 241q18 37 29 37q12 0 12 -47v-237q0 -25 -17.5 -41.5t-41.5 -16.5h-64q-47 0 -47 29z" />
<glyph unicode="5" horiz-adv-x="1085" d="M113 238q0 -25 12 -50q63 -98 162.5 -153t234.5 -55q143 0 246.5 70.5t157 183t53.5 235.5t-50 230.5t-148.5 173t-235.5 65.5q-41 0 -123 -23h-6q-12 0 -21.5 11.5t-9.5 25.5l16 150q2 39 31 64.5t68 25.5h280q39 0 69 27.5t30 64.5v72q0 41 -30 69.5t-69 28.5h-508 q-37 0 -64.5 -23.5t-29.5 -62.5l-57 -602q-4 -27 9 -52.5t38 -41.5l104 -60q14 -8 39 -8q39 0 70 21q47 51 141 51q80 0 124 -64.5t44 -152.5q0 -90 -45 -153.5t-131 -63.5q-55 0 -92 22.5t-68 67.5q-12 25 -34.5 37t-49.5 12q-33 0 -55 -16l-63 -48q-39 -31 -39 -79z" />
<glyph unicode="6" horiz-adv-x="1142" d="M102 748q0 -328 112 -547t368 -219q145 0 250.5 72.5t161 187t55.5 239.5q0 121 -48.5 226.5t-143.5 169t-230 63.5q-68 0 -111 -22.5t-102 -67.5q-10 -6 -17 -6q-10 0 -18 8t-8 22q18 164 72.5 255.5t158.5 91.5q33 0 66.5 -18.5t56.5 -49.5q29 -33 76 -33q33 0 59 19 l60 41q45 27 45 82q0 33 -21 59q-125 158 -348 158q-164 0 -275.5 -102.5t-165 -269.5t-53.5 -359zM393 473q0 94 49.5 160.5t139.5 66.5q86 0 134 -65.5t48 -153.5q0 -96 -50 -166.5t-139 -70.5q-86 0 -134 69.5t-48 159.5z" />
<glyph unicode="7" horiz-adv-x="862" d="M39 1296q0 -43 30.5 -74.5t75.5 -31.5h301q33 0 53.5 -20.5t20.5 -51.5q0 -10 -4 -26l-272 -994q-4 -16 -4 -26q0 -31 20.5 -51.5t56.5 -20.5h97q37 0 67.5 21.5t38.5 54.5l363 1276q4 10 4 30q0 31 -19.5 50.5t-54.5 19.5h-668q-45 0 -75.5 -30.5t-30.5 -73.5v-52z" />
<glyph unicode="8" horiz-adv-x="1134" d="M82 453q0 -123 54 -230.5t165 -173t268 -65.5q158 0 267.5 65.5t164 173t54.5 230.5q0 102 -40 187t-120 144q-31 16 -31 50q0 18 15 38q10 16 35.5 55.5t41 80.5t15.5 82q0 102 -46 191t-136.5 143.5t-219.5 54.5t-219 -54.5t-136 -143.5t-46 -191q0 -63 18.5 -104.5 t51.5 -88.5q10 -12 26 -37q10 -14 10 -29q0 -29 -20 -40q-172 -115 -172 -338zM352 457q0 90 57.5 156.5t159.5 66.5t159.5 -66.5t57.5 -156.5q0 -88 -58 -156t-159 -68q-100 0 -158.5 68t-58.5 156zM432 1083q0 59 36 103.5t101 44.5q63 0 100.5 -44t37.5 -104 q0 -57 -37 -100t-101 -43q-66 0 -101.5 43t-35.5 100z" />
<glyph unicode="9" horiz-adv-x="1148" d="M94 981q0 -123 48 -227.5t143.5 -169t232.5 -64.5q49 0 107.5 21.5t87.5 56.5q18 20 30 20t19.5 -17t7.5 -38q0 -145 -62.5 -235t-162.5 -90q-96 0 -178 90q-27 29 -64 28q-35 0 -74 -26l-41 -29q-39 -27 -38 -78q0 -33 18 -63q51 -84 137 -133.5t246 -49.5 q268 0 382 209t114 527q0 332 -112 551t-370 219q-150 0 -256 -72t-160.5 -187.5t-54.5 -242.5zM379 981q0 96 51 168t135 72q88 0 135.5 -70t47.5 -164q0 -92 -49.5 -159.5t-137.5 -67.5q-86 0 -134 66.5t-48 154.5z" />
<glyph unicode=":" horiz-adv-x="555" d="M102 176q0 -72 53.5 -124t125.5 -52t122 52t50 124t-50.5 121t-121.5 49q-74 0 -126.5 -49t-52.5 -121zM102 903q0 -74 53.5 -126t125.5 -52t122 52t50 126q0 72 -50.5 122t-121.5 50q-74 0 -126.5 -50t-52.5 -122z" />
<glyph unicode=";" horiz-adv-x="559" d="M102 901q0 -74 52.5 -128t128.5 -54q72 0 123 54t51 128t-51.5 125t-122.5 51q-76 0 -128.5 -51t-52.5 -125zM113 141q0 -63 44 -106t101 -43q16 0 25 2q-4 -66 -36 -98.5t-89 -42.5q-16 -2 -27.5 -17.5t-11.5 -32.5q0 -20 13 -32.5t32 -12.5q88 4 150.5 52.5t94 119 t31.5 144.5q0 100 -44 160.5t-130 60.5q-63 0 -108 -44t-45 -110z" />
<glyph unicode="&#x3c;" horiz-adv-x="954" d="M47 489q0 -45 19.5 -82.5t56.5 -58.5l493 -334q41 -29 93 -28q41 0 79.5 19.5t63.5 55.5q27 41 27 93q0 43 -18.5 79.5t-55.5 61.5l-232 156q-66 41 -81 49q-14 12 -15 30q0 20 15 27l81 49l232 156q37 25 55.5 60.5t18.5 78.5q0 49 -27 94q-25 37 -62.5 55.5t-80.5 18.5 q-51 0 -93 -27l-493 -331q-37 -27 -56.5 -64t-19.5 -78v-80z" />
<glyph unicode="=" horiz-adv-x="1081" d="M59 475q0 -51 36 -87t87 -36h717q49 0 86 36t37 87t-37 86t-86 35h-717q-53 0 -88 -35t-35 -86zM59 903q0 -51 36 -87t87 -36h717q49 0 86 36t37 87t-37 86t-86 35h-717q-53 0 -88 -35t-35 -86z" />
<glyph unicode="&#x3e;" horiz-adv-x="954" d="M68 154q0 -49 26 -95q25 -37 63 -55t81 -18q51 0 92 26l493 332q37 27 56.5 63.5t19.5 77.5v80q0 45 -19.5 83t-56.5 59l-493 333q-41 29 -92 29q-41 0 -80 -19.5t-64 -56.5q-27 -41 -26 -92q0 -43 18 -80t55 -61l232 -156q66 -41 82 -49q16 -10 16 -31q0 -16 -16 -26 l-82 -49l-232 -156q-37 -25 -55 -60.5t-18 -78.5z" />
<glyph unicode="?" horiz-adv-x="940" d="M37 1235q0 -29 13 -54.5t38 -41.5l35 -25q29 -20 65 -20q31 0 59.5 16t45.5 47q27 49 70 77t96 28q70 0 107.5 -37t37.5 -92q0 -53 -29.5 -93.5t-93.5 -97.5q-76 -72 -114.5 -113t-71.5 -102t-33 -133q0 -41 8 -74q10 -45 47 -69.5t84 -24.5q31 0 62 12l33 19 q27 14 42 39.5t15 54.5q0 14 -2 20l-2 27q0 37 22.5 66.5t52 56.5t42.5 39q14 12 82.5 72.5t107.5 136t39 159.5q0 180 -116.5 289t-323.5 109q-139 0 -240.5 -62.5t-163.5 -171.5q-14 -27 -14 -57zM285 168q0 -70 49 -119t119 -49q68 0 115.5 49t47.5 119q0 68 -48 117 t-115 49q-70 0 -119 -49t-49 -117z" />
<glyph unicode="@" horiz-adv-x="1523" d="M94 748q0 -225 86 -402.5t239.5 -277t348.5 -99.5q162 0 289 70q27 14 42 38.5t15 53.5q0 45 -31.5 75t-72.5 30q-27 0 -52 -13q-86 -43 -190 -43q-113 0 -218.5 67.5t-171 196.5t-65.5 304q0 182 63.5 311t168 194.5t223.5 65.5q131 0 234.5 -66.5t162 -195.5t58.5 -305 q0 -131 -68 -131q-33 0 -48 31.5t-15 95.5v204v39q2 37 -23 62.5t-61 25.5q-33 0 -56.5 -17.5t-31.5 -49.5v-11h-5q-18 35 -58 67t-114 32q-137 0 -214.5 -101.5t-77.5 -250.5q0 -176 69.5 -264.5t184.5 -88.5q55 0 95 23.5t62 54.5q12 16 29 16q18 0 35 -16q66 -78 204 -78 q147 0 223.5 101.5t76.5 275.5q0 180 -72 354t-221.5 289t-368.5 115q-195 0 -348.5 -99.5t-239.5 -277.5t-86 -405zM686 752q0 70 25.5 103.5t62.5 33.5q31 0 54.5 -29t23.5 -74q0 -77 -28.5 -126.5t-63.5 -49.5q-31 0 -52.5 36t-21.5 106z" />
<glyph unicode="A" horiz-adv-x="1009" d="M39 88q0 -53 28.5 -70.5t73.5 -17.5h43q47 0 76 20.5t45 75.5l31 113q2 8 12 43t31.5 52.5t56.5 17.5h129q51 0 68.5 -28t30.5 -85l30 -113q16 -55 45 -75.5t78 -20.5h45q106 0 107 92q0 23 -6 49l-285 1190q-10 41 -45 72t-78 31h-104q-41 0 -76 -31t-45 -72l-283 -1186 q-8 -31 -8 -57zM428 680l27 147l30 152q2 8 7.5 14t9.5 6q14 0 16 -24l29 -148l28 -149q8 -41 9 -62q0 -59 -64 -59h-33q-65 0 -65 66q0 31 6 57z" />
<glyph unicode="B" horiz-adv-x="1073" d="M82 82q0 -35 24.5 -58.5t59.5 -23.5h328q252 0 374.5 122t122.5 318v70q-2 92 -52 160.5t-136 109.5q-4 0 -4 6l2 2q72 43 107.5 127t35.5 185q0 147 -119.5 240.5t-339.5 93.5h-319q-35 0 -59.5 -24t-24.5 -58v-1270zM350 338v229q0 53 18.5 68.5t67.5 15.5h76 q98 0 160.5 -51t62.5 -135v-25q0 -186 -221 -186h-78q-49 0 -67.5 17.5t-18.5 66.5zM350 971v125q0 49 15.5 66.5t70.5 17.5h17q119 0 171 -36t52 -93q0 -68 -51.5 -116t-169.5 -48h-19q-53 0 -69.5 16.5t-16.5 67.5z" />
<glyph unicode="C" horiz-adv-x="1075" d="M94 717q0 197 55.5 359.5t172 260t290.5 97.5q233 0 371 -181q27 -33 27 -75q0 -35 -16.5 -64t-47.5 -47l-4 -2q-27 -16 -63 -16q-61 0 -99 47q-70 88 -168 88q-119 0 -189.5 -126t-70.5 -341q0 -219 71 -344t189 -125q106 0 176 96q18 27 46 41t59 14q29 0 53 -12 q0 -2 1 -2h1q35 -16 54.5 -47t19.5 -68t-23 -71q-139 -199 -387 -199q-174 0 -290.5 96.5t-172 259t-55.5 361.5z" />
<glyph unicode="D" horiz-adv-x="1224" d="M168 96v1247q0 39 26.5 65t61.5 26h283q315 0 450 -200t135 -509q0 -319 -135 -522t-450 -203h-283q-33 0 -60.5 29.5t-27.5 66.5zM438 352q0 -39 25.5 -68.5t56.5 -29.5h19q172 0 244.5 126t72.5 345q0 457 -317 457h-19q-33 0 -57.5 -28t-24.5 -69v-733z" />
<glyph unicode="E" horiz-adv-x="1015" d="M127 104q0 -45 29.5 -74.5t74.5 -29.5h555q43 0 73 29.5t30 74.5v50q0 41 -30 71.5t-73 30.5h-292q-39 0 -70 30.5t-31 69.5v160q0 43 30 72.5t71 29.5h176q43 0 72.5 30t29.5 71v55q0 41 -29.5 72t-72.5 31h-176q-39 0 -70 30.5t-31 69.5v98q0 41 31 73t70 32h292 q43 0 73 28.5t30 69.5v55q0 41 -30 71t-73 30h-555q-45 0 -74.5 -29t-29.5 -72v-1229z" />
<glyph unicode="F" horiz-adv-x="1011" d="M168 102q0 -43 29.5 -72.5t72.5 -29.5h62q43 0 73.5 29.5t30.5 72.5v412q0 43 30 73.5t73 30.5h211q41 0 70.5 30t29.5 71v53q0 41 -29.5 71.5t-70.5 30.5h-211q-45 0 -74 30t-29 73v98q0 43 29 73t74 30h288q43 0 74 29.5t31 72.5v51q0 41 -31 72t-74 31h-557 q-41 0 -71.5 -31t-30.5 -72v-1229z" />
<glyph unicode="G" horiz-adv-x="1191" d="M96 717q0 309 126 513t407 204q143 0 242.5 -67t147.5 -159q44 -85 44 -149v-10q0 -33 -20.5 -56.5t-53.5 -23.5h-94q-59 0 -78 84q-14 53 -59 94t-129 41q-137 0 -204 -133t-67 -338t67 -338t204 -133q156 0 184 176q4 29 4 43q0 72 -82 72h-4q-84 0 -111.5 20.5 t-27.5 54.5v74q0 35 22.5 57.5t55.5 22.5h274q76 0 115 -33t39 -94v-25q-4 -291 -125 -452.5t-344 -161.5q-281 0 -407 204t-126 513z" />
<glyph unicode="H" horiz-adv-x="1236" d="M168 102q0 -43 30.5 -72.5t71.5 -29.5h62q43 0 73.5 29.5t30.5 72.5v334q0 41 30 72t73 31h163q41 0 72 -31t31 -72v-334q0 -43 29.5 -72.5t72.5 -29.5h60q43 0 72.5 29.5t29.5 72.5v1229q0 41 -29.5 72t-72.5 31h-60q-43 0 -72.5 -31t-29.5 -72v-434q0 -41 -31 -71.5 t-72 -30.5h-163q-43 0 -73 30.5t-30 71.5v434q0 41 -30.5 72t-73.5 31h-62q-41 0 -71.5 -31t-30.5 -72v-1229z" />
<glyph unicode="I" horiz-adv-x="604" d="M168 102q0 -43 30.5 -72.5t71.5 -29.5h62q43 0 73.5 29.5t30.5 72.5v1231q0 41 -30.5 71t-73.5 30h-62q-41 0 -71.5 -30t-30.5 -71v-1231z" />
<glyph unicode="J" horiz-adv-x="960" d="M41 109q0 41 31 81l26 35q12 16 37 26.5t51 10.5q27 0 45 -12q16 -12 52 -18.5t67 -6.5q106 0 149.5 48.5t43.5 172.5v871q0 41 28.5 68.5t67.5 27.5h76q41 0 68.5 -27.5t27.5 -68.5v-883q0 -231 -124 -344t-337 -113q-82 0 -149.5 12.5t-122.5 47.5q-37 25 -37 72z" />
<glyph unicode="K" horiz-adv-x="1052" d="M92 94q0 -39 26.5 -66.5t65.5 -27.5h92q35 0 59.5 24.5t24.5 59.5v326q0 39 21 73q23 37 53 68q8 8 17 8q12 0 22 -16l256 -486q31 -57 76 -57h125q33 0 54.5 17.5t21.5 43.5q0 16 -9 33l-348 713q-6 12 -6 24q0 20 12 39l332 480q14 20 14 39q0 20 -16 32.5t-45 12.5 h-135q-35 0 -59.5 -14.5t-47.5 -45.5l-313 -428q-6 -10 -14 -10q-10 0 -11 16v381q0 43 -31.5 72t-74.5 29h-59q-43 0 -73 -29t-30 -72v-1239z" />
<glyph unicode="L" horiz-adv-x="980" d="M168 102q0 -43 30.5 -72.5t71.5 -29.5h561q45 0 75 29.5t30 72.5v50q0 45 -29.5 73.5t-75.5 28.5h-290q-45 0 -75 30.5t-30 73.5v973q0 43 -29.5 73t-72.5 30h-64q-41 0 -71.5 -30t-30.5 -73v-1229z" />
<glyph unicode="M" horiz-adv-x="1458" d="M152 100v1231q0 43 29.5 73t70.5 30h119q33 0 63.5 -18.5t46.5 -49.5l232 -575q6 -10 14 -11q10 0 14 11l234 579q16 31 47 49.5t63 18.5h119q41 0 71 -30t30 -73v-1231q0 -41 -30 -70.5t-71 -29.5h-61q-43 0 -73 29.5t-30 70.5l2 740q0 31 -6 30q-8 0 -20 -30l-209 -590 q-10 -27 -31.5 -42t-48.5 -15t-49.5 15t-30.5 42l-207 586q-12 31 -20 30q-6 0 -6 -30l2 -740q0 -41 -29 -70.5t-74 -29.5h-61q-41 0 -70.5 29.5t-29.5 70.5z" />
<glyph unicode="N" horiz-adv-x="1179" d="M127 106q0 -45 31.5 -75.5t77.5 -30.5h22q43 0 73.5 30.5t30.5 75.5v697q0 14 5.5 22.5t11.5 8.5q12 0 22 -21l398 -754q10 -22 40.5 -40.5t55.5 -18.5h59q39 0 69 31.5t30 74.5v1219q0 47 -30 78t-69 31h-32q-47 0 -78 -31t-31 -78v-668q0 -49 -10 -49q-6 0 -27 39 l-362 717q-14 31 -46 50.5t-73 19.5h-59q-47 0 -78 -31t-31 -78v-1219z" />
<glyph unicode="O" horiz-adv-x="1204" d="M82 717q0 -199 55.5 -361.5t172 -259t290.5 -96.5t292 96.5t174 259t56 361.5q0 197 -56 359.5t-174 260t-292 97.5t-290.5 -97.5t-172 -260.5t-55.5 -359zM340 717q0 215 70.5 341t189.5 126q121 0 193.5 -126t72.5 -341q0 -219 -72.5 -344t-193.5 -125 q-119 0 -189.5 125t-70.5 344z" />
<glyph unicode="P" horiz-adv-x="1124" d="M168 92q0 -39 26.5 -65.5t63.5 -26.5h84q39 0 65.5 26.5t26.5 65.5v275q0 39 26.5 66.5t63.5 27.5q168 0 292 71.5t188.5 186.5t64.5 244q0 137 -58.5 243.5t-171 167t-272.5 60.5h-309q-37 0 -63.5 -27t-26.5 -66v-1249zM434 809v283q0 39 26.5 66.5t63.5 27.5h13 q121 0 193.5 -54.5t72.5 -170.5q0 -106 -76 -175t-190 -69h-13q-37 0 -63.5 26.5t-26.5 65.5z" />
<glyph unicode="Q" horiz-adv-x="1220" d="M90 715q0 197 55.5 359.5t172 260t290.5 97.5t292 -97.5t174 -260.5t56 -359q0 -184 -61 -346t-164 -260q6 -41 20.5 -66t30 -43t23.5 -29q22 -28 22 -64q0 -40 -22 -63l-25 -22q-43 -37 -84 -37q-35 0 -61 27q-59 59 -85 99t-38 93q-37 -6 -78 -6q-174 0 -290.5 96 t-172 259t-55.5 362zM348 715q0 -217 70.5 -341t185.5 -128l-20 43q-14 35 -21 43q-10 18 -10 45q0 43 31 80q28 30 65 30h2q41 0 66 -30q41 -49 71 -107q86 119 86 365q0 215 -72.5 341t-193.5 126q-119 0 -189.5 -126t-70.5 -341z" />
<glyph unicode="R" horiz-adv-x="1157" d="M166 84v1262q0 35 31.5 61.5t81.5 26.5h307q147 0 247.5 -68t148.5 -174.5t48 -222.5q0 -207 -156 -377q-12 -14 -16 -26q-4 -13 -4 -21q0 -23 16 -77q18 -60 59.5 -130t100.5 -121q21 -18 33 -40.5t12 -45.5q0 -27 -18 -51l-31 -37q-53 -59 -106 -59q-31 0 -56 24 q-102 88 -154.5 191.5t-74.5 191.5q-8 35 -32.5 52.5t-59.5 17.5q-109 0 -109 -92v-285q0 -37 -22.5 -63.5t-69.5 -26.5h-63q-49 0 -81 27.5t-32 62.5zM434 813q0 -47 27.5 -67.5t81.5 -20.5q108 0 163.5 73.5t55.5 170.5q0 90 -55.5 155.5t-163.5 65.5q-47 0 -78 -26.5 t-31 -61.5v-289z" />
<glyph unicode="S" horiz-adv-x="968" d="M41 221q0 29 16.5 55.5t46.5 40.5l33 19q23 12 62 12q25 0 43 -8t47 -31q74 -61 176 -61q90 0 145.5 40t55.5 115q0 66 -58.5 112t-185.5 112q-119 61 -192.5 111t-127 129t-53.5 186q0 106 53.5 192t148.5 136.5t214 50.5q145 0 240.5 -46.5t154.5 -136.5q16 -25 17 -57 q0 -31 -16.5 -57.5t-47.5 -40.5l-33 -13q-27 -12 -55 -12q-27 2 -48.5 14.5t-49.5 36.5q-37 33 -71 48.5t-89 15.5q-59 0 -97 -33t-38 -90q0 -63 55 -105.5t176 -99.5q121 -59 198 -108.5t132 -133.5t55 -206q0 -123 -60.5 -215.5t-169 -142.5t-247.5 -50q-268 0 -405 156 q-25 31 -25 65z" />
<glyph unicode="T" horiz-adv-x="1060" d="M20 1280q0 -43 30 -72.5t73 -29.5h176q41 0 71.5 -30t30.5 -73v-973q0 -43 29 -72.5t74 -29.5h59q43 0 73 29.5t30 72.5v973q0 43 28.5 73t69.5 30h172q41 0 72.5 29.5t31.5 72.5v53q0 41 -31.5 71t-72.5 30h-813q-43 0 -73 -30t-30 -71v-53z" />
<glyph unicode="U" horiz-adv-x="1091" d="M92 496q0 -248 124 -372t333 -124q207 0 328.5 124t121.5 372v847q0 37 -29.5 64t-68.5 27h-70q-40 0 -67 -26t-27 -65v-858q0 -113 -44 -171t-148 -58q-102 0 -147.5 57.5t-45.5 165.5v864q0 37 -28.5 64t-67.5 27h-70q-43 0 -68.5 -26t-25.5 -65v-847z" />
<glyph unicode="V" horiz-adv-x="1052" d="M25 1356q0 -14 2 -21l327 -1237q12 -41 48 -69.5t75 -28.5h98q45 0 82 27.5t48 70.5l319 1237q4 16 4 23q0 31 -22.5 53.5t-59.5 22.5h-76q-41 0 -75.5 -30t-42.5 -75q-14 -70 -103.5 -436.5t-122.5 -497.5l-221 934q-10 43 -46 74t-81 31h-67q-37 0 -61.5 -22.5 t-24.5 -55.5z" />
<glyph unicode="W" horiz-adv-x="1583" d="M25 1352q0 -10 2 -17l252 -1237q8 -43 43.5 -70.5t78.5 -27.5h103q43 0 78.5 27.5t44.5 70.5l149 705q10 43 21 43q14 0 20 -43l137 -705q12 -43 47 -70.5t78 -27.5h107q43 0 80 27.5t47 70.5l243 1237q2 8 3 23q0 33 -24 54.5t-58 21.5h-74q-43 0 -80 -29t-43 -70 l-139 -862q-6 -43 -19 -43q-8 0 -18 43l-154 862q-8 43 -42 71t-77 28h-75q-45 0 -81 -28t-42 -71l-150 -862q-6 -43 -18 -43q-8 0 -19 43l-143 862q-8 43 -42 71t-75 28h-71q-39 0 -64.5 -22.5t-25.5 -59.5z" />
<glyph unicode="X" horiz-adv-x="1017" d="M45 61q0 16 8 33l271 598q6 12 6 25q0 12 -6 24l-271 596q-8 16 -8 33q0 29 20.5 46.5t53.5 17.5h108q31 0 55.5 -17.5t36.5 -48.5l156 -371q14 -39 31 -39q14 0 33 39l163 369q12 29 38 48.5t59 19.5h102q33 0 52.5 -16.5t19.5 -45.5q0 -18 -8 -35l-273 -602 q-4 -12 -4 -18t4 -19l273 -604q8 -25 8 -33q0 -27 -19.5 -44t-52.5 -17h-110q-29 0 -52.5 16.5t-36.5 44.5l-161 373q-14 39 -31 39q-12 0 -31 -39l-160 -368q-12 -29 -37.5 -47.5t-56.5 -18.5h-106q-33 0 -53.5 17.5t-20.5 43.5z" />
<glyph unicode="Y" horiz-adv-x="1167" d="M23 1368q0 -18 8 -33l383 -755q41 -82 41 -185q0 -29 -2 -52.5t-2 -41.5v-199q0 -43 29.5 -72.5t72.5 -29.5h61q41 0 72 29.5t31 72.5v185q0 18 -2 43.5t-2 58.5q0 111 35 178l389 768q8 20 8 29q0 29 -23.5 49.5t-56.5 20.5h-119q-37 0 -57.5 -22.5t-50.5 -80.5 l-230 -416q-8 -14 -14 -24t-10 -10q-8 0 -27 34l-231 416q-29 53 -51.5 78t-59.5 25h-113q-33 0 -56 -18.5t-23 -47.5z" />
<glyph unicode="Z" horiz-adv-x="1083" d="M49 59q0 -27 19.5 -43t52.5 -16h809q41 0 71.5 33t30.5 73v50q0 43 -30.5 72.5t-71.5 29.5h-369q-33 0 -53.5 16.5t-20.5 42.5q0 16 11 37l522 985q8 16 8 35q0 27 -19.5 43.5t-52.5 16.5h-759q-43 0 -72 -28t-29 -69v-53q0 -43 29 -71.5t72 -28.5h315q31 0 51.5 -18.5 t20.5 -43.5q0 -18 -9 -32l-516 -994q-10 -20 -10 -37z" />
<glyph unicode="[" horiz-adv-x="571" d="M156 -199q0 -35 25.5 -61.5t62.5 -26.5h217q39 0 64.5 25.5t25.5 62.5v11q0 37 -26.5 64.5t-63.5 27.5q-35 0 -60.5 25.5t-25.5 62.5v1366q0 39 25.5 65.5t60.5 26.5q39 0 64.5 25.5t25.5 64.5v10q0 37 -25.5 63.5t-64.5 26.5h-217q-37 0 -62.5 -26.5t-25.5 -63.5v-1749z " />
<glyph unicode="\" horiz-adv-x="858" d="M61 1430q0 -27 9 -46l489 -1323q20 -59 51 -77.5t80 -18.5q47 0 77 20.5t30 63.5q0 27 -13 60l-485 1323q-20 57 -53 75.5t-82 18.5q-45 0 -74 -28t-29 -68z" />
<glyph unicode="]" horiz-adv-x="571" d="M20 -178v-10q0 -37 26 -64t65 -27h217q37 0 62.5 27t25.5 64v1749q0 35 -25.5 61.5t-62.5 26.5h-217q-37 0 -64 -26t-27 -62v-11q0 -37 27 -64.5t64 -27.5q35 0 60.5 -25.5t25.5 -62.5v-1366q0 -39 -26 -65.5t-60 -26.5q-39 0 -65 -25.5t-26 -64.5z" />
<glyph unicode="^" horiz-adv-x="1013" d="M0 1040q0 -66 43 -108q51 -61 129 -62q70 0 117 54l119 118q35 39 62.5 75t33.5 52h6q10 -12 39 -48t65 -79l111 -118q49 -49 119 -50q35 0 68.5 15.5t58.5 42.5q43 43 43 108q0 35 -13.5 68t-37.5 53l-269 246q-55 41 -112 41h-144q-70 0 -110 -41l-271 -238 q-57 -51 -57 -129z" />
<glyph unicode="_" horiz-adv-x="962" d="M0 -188q0 -53 36 -88t87 -35h717q49 0 86 35.5t37 87.5q0 51 -37 85.5t-86 34.5h-717q-53 0 -88 -34.5t-35 -85.5z" />
<glyph unicode="`" horiz-adv-x="450" d="M-10 1481q0 -29 15 -53.5t42 -34.5l291 -125q16 -6 33 -6q29 0 52 15t36 42q10 16 10 41t-13.5 46t-37.5 32l-285 139q-23 12 -43 12q-27 0 -49.5 -14t-32.5 -37l-10 -20q-8 -16 -8 -37z" />
<glyph unicode="a" d="M84 309q0 -143 74.5 -234t218.5 -91q117 0 207 79q10 10 22 11q12 0 23.5 -8.5t13.5 -22.5v-2q6 -18 20.5 -28.5t30.5 -10.5h129q27 0 45 22q15 18 16 39q0 5 -1 9q-10 51 -11 92v510q0 221 -99 328.5t-253 107.5q-90 0 -155.5 -21.5t-135.5 -80.5q-32 -32 -32 -70 q0 -31 22 -57l39 -50q10 -16 39 -16q35 0 70 29q31 25 54 37t56 12q76 0 110 -50t34 -143q0 -18 -11.5 -31.5t-25.5 -13.5q-254 -8 -377 -100t-123 -246zM319 309q0 74 60.5 110t171.5 56q10 2 29 2q29 -1 36 -17q6 -14 6 -38v-6q-1 -28 -1 -43q0 -94 -50.5 -141.5 t-142.5 -47.5q-47 0 -78 33t-31 92z" />
<glyph unicode="b" horiz-adv-x="964" d="M51 115v-5q0 -44 30 -76q32 -34 79 -34q41 0 70.5 23.5t39.5 60.5q0 4 6.5 4t10.5 -4q41 -45 100 -74.5t123 -29.5q117 0 209 72.5t143 202.5t51 298q0 250 -101 400.5t-282 150.5q-104 0 -172 -51q-6 -4 -20 -4q-16 0 -27.5 9t-11.5 25v47v236q0 47 -30.5 79t-78.5 32 h-26q-45 0 -79 -32t-34 -79v-1204v-47zM299 391v328q0 66 40 117t110 51q117 0 165 -94.5t48 -239.5t-48.5 -244.5t-164.5 -99.5q-68 0 -109 55t-41 127z" />
<glyph unicode="c" horiz-adv-x="868" d="M51 537q0 -262 110.5 -409.5t313.5 -147.5q197 0 299 124q27 29 27 72q0 57 -43 94q-33 29 -74 29q-57 0 -94 -41q-37 -49 -105 -49q-109 0 -143.5 88t-34.5 240q0 156 37 245.5t141 89.5q66 0 105 -47q34 -34 85 -34h3q45 0 78 24q41 33 41 90q0 47 -29 78 q-104 121 -293 121q-197 0 -310.5 -153.5t-113.5 -413.5z" />
<glyph unicode="d" horiz-adv-x="1058" d="M92 543q0 -160 46 -289t133 -203t204 -74q160 0 248 123h22q0 -35 31 -66.5t68 -31.5q55 0 89 35t34 88v49v1178q0 55 -34 89t-89 34h-25q-41 0 -82 -36t-41 -87v-222v-98q-18 37 -65 56.5t-105 19.5q-133 0 -231 -69.5t-150.5 -197.5t-52.5 -298zM354 543 q0 145 48.5 244.5t148.5 99.5q66 0 105.5 -55.5t39.5 -116.5v-320q0 -82 -30.5 -126t-114.5 -44q-102 0 -149.5 88t-47.5 230z" />
<glyph unicode="e" d="M92 539q0 -264 107.5 -411.5t314.5 -147.5q117 0 195.5 37.5t144.5 119.5q16 16 16 39q0 31 -24 51l-72 62q-14 14 -41 14q-35 0 -49 -24q-36 -43 -66 -61q-25 -15 -59 -16q-8 0 -16 1q-92 8 -134 47t-55 117q-2 6 -2 20q0 31 15.5 50.5t40.5 19.5h436q27 0 45 18.5 t18 40.5q0 264 -83 427t-310 163q-201 0 -311.5 -152.5t-110.5 -414.5zM348 700q0 102 47 157.5t127 55.5q72 0 118 -56t46 -165q0 -27 -13.5 -42t-49.5 -15h-211q-37 0 -50.5 16.5t-13.5 48.5z" />
<glyph unicode="f" horiz-adv-x="557" d="M61 94v762v16v295q2 158 101 255q88 87 239 87q20 0 41 -2q35 0 59.5 -24.5t24.5 -61.5q0 -10 -2 -16l-8 -51q-6 -29 -30.5 -47.5t-55.5 -16.5h-14q-47 0 -74 -31.5t-27 -91.5q0 -18 16.5 -34.5t33.5 -16.5h45q37 0 60.5 -22.5t23.5 -55.5v-49q0 -35 -24 -58.5t-60 -23.5 h-37q-25 0 -41.5 -14t-16.5 -37v-752q0 -45 -28.5 -74.5t-69.5 -29.5h-57q-41 0 -70 28.5t-29 65.5z" />
<glyph unicode="g" horiz-adv-x="1136" d="M94 555q0 -270 106.5 -427t299.5 -157q102 0 172 49q12 6 24 7q18 0 32.5 -13.5t14.5 -33.5v-23q0 -115 -50 -173t-146 -58q-59 0 -94 14t-56 43q-35 39 -82 39q-41 0 -75 -31l-31 -27q-31 -31 -31 -75q0 -45 29 -80q59 -66 136 -95.5t206 -29.5q219 0 340 130t121 372 v936v39q1 8 1 15q0 40 -28 70q-33 37 -82 37h-18q-43 0 -57.5 -10t-18.5 -23.5t-6 -17.5q-6 -18 -25 -18q-16 0 -37 12q-41 37 -93 58.5t-109 21.5q-205 0 -324 -143.5t-119 -407.5zM362 555q0 143 49.5 229t170.5 86q76 0 118.5 -56t42.5 -130v-250q0 -86 -42 -149.5 t-132 -63.5q-117 0 -162 91t-45 243z" />
<glyph unicode="h" horiz-adv-x="1001" d="M92 100q0 -47 33 -79.5t80 -32.5h22q47 0 81 32.5t34 79.5v584q0 82 42 136t120 54q82 0 118.5 -57t36.5 -147v-570q0 -47 34 -79.5t81 -32.5h23q47 0 79.5 32.5t32.5 79.5v572q0 182 -77.5 302t-243.5 120q-115 0 -193 -58q-10 -6 -20 -6q-12 0 -22.5 9.5t-10.5 23.5v18 v279q0 47 -34 80t-81 33h-22q-47 0 -80 -33t-33 -80v-1260z" />
<glyph unicode="i" horiz-adv-x="557" d="M127 1333q0 -61 45 -106t107 -45q61 0 105 45t44 106t-44 104.5t-105 43.5t-106.5 -43t-45.5 -105zM154 92q0 -39 27.5 -66.5t66.5 -27.5h57q39 0 67.5 27.5t28.5 66.5v891q0 41 -27.5 68.5t-68.5 27.5h-57q-39 0 -66.5 -28.5t-27.5 -67.5v-891z" />
<glyph unicode="j" horiz-adv-x="540" d="M-158 -309q0 -37 22.5 -65.5t59.5 -33.5l43 -2q29 -4 47 -4q178 0 275.5 114t97.5 308v946q0 51 -36 87t-87 36h-18q-49 0 -81 -31.5t-32 -82.5v-936q0 -109 -30.5 -160t-106.5 -53q-10 0 -19.5 2t-19.5 2q-6 2 -18 2q-25 0 -47.5 -16.5t-32.5 -41.5l-11 -34 q-6 -18 -6 -37zM113 1331q0 -61 45 -105t106 -44q63 0 110 50q39 43 39 96q0 9 -1 18q-8 57 -49 95t-95 38q-63 0 -109 -44t-46 -104z" />
<glyph unicode="k" horiz-adv-x="1001" d="M143 98q0 -41 28 -68.5t67 -27.5h57q39 0 66.5 28.5t27.5 67.5v267q0 37 23 65l4 4q12 14 30 15q23 0 35 -21l6 -10q0 -2 37 -70l21 -37l137 -252q14 -27 38.5 -42t55.5 -15h119q29 0 44 13.5t15 33.5q0 16 -10 37l-297 535q-12 18 -12 43q0 29 20 53l238 287 q16 18 16 38q0 16 -13 25.5t-38 9.5h-119q-35 0 -67.5 -15t-55.5 -42l-104 -125l-82 -98l-10 -13q-6 -6 -14 -6q-6 0 -11.5 4t-5.5 13v16v127v455q0 39 -27.5 67.5t-66.5 28.5h-57q-39 0 -67 -27.5t-28 -68.5v-1295z" />
<glyph unicode="l" horiz-adv-x="552" d="M143 100q0 -41 30 -71.5t73 -30.5h61q41 0 72 30.5t31 71.5v1291q0 43 -31 72.5t-72 29.5h-61q-43 0 -73 -29.5t-30 -72.5v-1291z" />
<glyph unicode="m" horiz-adv-x="1568" d="M127 995l2 -63v-842q0 -39 26.5 -65.5t65.5 -26.5h66q37 0 63.5 26.5t26.5 65.5v606q0 84 40 137.5t122 53.5q55 0 87.5 -36t32.5 -114v-647q0 -39 27 -65.5t66 -26.5h67q37 0 63.5 26.5t26.5 65.5v606q0 82 36 136.5t106 54.5q57 0 99 -37t42 -113v-647 q0 -39 26.5 -65.5t63.5 -26.5h70q37 0 63.5 26.5t26.5 65.5v655q0 172 -61.5 266.5t-217.5 94.5q-84 0 -134 -27.5t-79.5 -55.5t-38.5 -36q-8 -8 -22 -8q-20 0 -31 16q-35 51 -94 81t-139 30q-72 0 -133.5 -25.5t-104.5 -74.5q-6 -8 -18 -9q-18 0 -23 19q-8 33 -32.5 52 t-57.5 19h-39q-37 0 -63.5 -26.5t-26.5 -65.5z" />
<glyph unicode="n" horiz-adv-x="1021" d="M92 111q0 -47 31 -79t78 -32h28q45 0 78 31.5t33 79.5v585q0 82 43 137.5t121 55.5q90 0 133 -58.5t43 -146.5v-573q0 -47 34 -79t81 -32h20q47 0 81 31.5t34 79.5v573q0 182 -85 302t-261 120q-158 0 -248 -113q-8 -8 -15.5 -7t-9.5 11q-10 41 -40.5 67t-69.5 26 q-49 0 -79 -34t-30 -85v-41v-819z" />
<glyph unicode="o" horiz-adv-x="1019" d="M72 547q0 -266 111.5 -416.5t326.5 -150.5q217 0 327.5 150.5t110.5 416.5q0 262 -110.5 410.5t-327.5 148.5q-215 0 -326.5 -148.5t-111.5 -410.5zM319 547q0 141 46.5 239.5t144.5 98.5q100 0 146 -98.5t46 -239.5q0 -150 -45 -246t-147 -96q-98 0 -144.5 101.5 t-46.5 240.5z" />
<glyph unicode="p" horiz-adv-x="1089" d="M127 -319q0 -39 27.5 -65t64.5 -26h74q35 0 59.5 26t24.5 65v325q0 14 9 22.5t22 8.5q10 0 18 -6q72 -53 182 -54q182 0 284.5 151t102.5 407q0 170 -48 298t-140 198.5t-217 70.5q-70 0 -132.5 -33t-105.5 -84h-4v25q-8 33 -32.5 52t-57.5 19h-39q-41 0 -67 -29 q-25 -26 -25 -62v-5v-55v-1249zM377 381v311q0 72 42 126t113 54q113 0 161 -98t48 -239q0 -147 -48 -242.5t-161 -95.5q-78 0 -116.5 53t-38.5 131z" />
<glyph unicode="q" horiz-adv-x="1071" d="M92 535q0 -258 101.5 -408t285.5 -150q45 0 94.5 18.5t85.5 43.5q4 2 11 2q27 0 26 -29v-41v-274q0 -47 36 -77t83 -30h21q106 0 106 107v1225v41q2 8 2 22q0 45 -30.5 72.5t-77.5 27.5q-33 0 -64 -26.5t-47 -65.5h-8q-94 113 -223 113q-188 0 -295 -155.5t-107 -415.5z M340 535q0 143 48 241t159 98q70 0 109.5 -53t39.5 -123v-313q0 -82 -35.5 -136t-113.5 -54q-111 0 -159 97t-48 243z" />
<glyph unicode="r" horiz-adv-x="749" d="M102 1016q0 -23 2 -42.5t2 -33.5v-860q0 -33 23 -56.5t55 -23.5h95q33 0 56 23.5t23 56.5v538q0 57 32 110.5t87 86.5t123 33l29 -2q31 0 53.5 19.5t26.5 47.5l12 119v9q1 33 -25 55q-25 21 -61 21q-6 0 -12 -1q-84 -8 -148.5 -47t-101.5 -94q-6 -8 -17 -8q-16 0 -20 16 q-8 25 -12 53q-8 27 -29 43.5t-47 16.5h-68q-33 0 -55.5 -23.5t-22.5 -56.5z" />
<glyph unicode="s" horiz-adv-x="888" d="M86 176q0 41 31 72l6 6q23 29 63 29q43 0 78 -29q33 -27 83 -47.5t93 -20.5q88 0 125 30t37 93q0 74 -100 113l-160 61q-240 94 -240 275q0 166 97.5 258t249.5 92q145 0 239 -61q72 -45 72 -99q0 -35 -29 -65q-45 -53 -88 -54q-20 0 -39 13q-82 55 -160 55 q-57 0 -91 -31.5t-34 -74.5t18.5 -64.5t68.5 -38.5l165 -59q113 -41 182.5 -112t69.5 -198q0 -172 -104.5 -254.5t-282.5 -82.5q-84 0 -166 26.5t-127 61.5q-27 20 -42 48.5t-15 57.5z" />
<glyph unicode="t" horiz-adv-x="624" d="M82 311v496v2v520q0 20 15.5 36.5t39.5 16.5h135q23 0 39.5 -16t16.5 -37v-201q0 -23 16 -40t39 -17h94q25 0 41.5 -15.5t16.5 -37.5v-98q0 -23 -16.5 -40.5t-41.5 -17.5h-94q-23 0 -39 -16.5t-16 -38.5v-473q0 -55 31.5 -89t80.5 -34q14 0 25 2q23 2 40 -11.5t21 -35.5 l19 -113q1 -5 1 -10q0 -17 -10 -32q-14 -19 -38 -21q-66 -8 -107 -8q-166 0 -237.5 82.5t-71.5 246.5z" />
<glyph unicode="u" horiz-adv-x="1073" d="M127 399q0 -182 78 -302t241 -120q154 0 246 109q6 6 15 6q14 0 14 -14q2 0 3 -3l1 -3q8 -33 33.5 -54.5t58.5 -21.5h33q39 0 67.5 29.5t28.5 70.5q-6 25 -6 54v833q0 39 -27.5 67.5t-66.5 28.5h-58q-39 0 -67.5 -27.5t-28.5 -68.5v-584q0 -90 -40 -146t-122 -56 t-118.5 57t-36.5 145v584q0 39 -28 67.5t-66 28.5h-58q-39 0 -67.5 -27.5t-28.5 -68.5v-584z" />
<glyph unicode="v" horiz-adv-x="907" d="M39 1012q0 -8 4 -25l256 -895q10 -37 45 -64.5t72 -27.5h82q39 0 73.5 27.5t44.5 64.5l248 895q4 16 4 25q0 29 -19.5 47t-49.5 18h-76q-41 0 -75 -27.5t-42 -66.5l-129 -567q-8 -39 -22 -39q-12 0 -21 39l-127 567q-10 39 -45 66.5t-74 27.5h-75q-33 0 -53.5 -18.5 t-20.5 -46.5z" />
<glyph unicode="w" horiz-adv-x="1501" d="M37 1026q0 -6 4 -22l240 -912q12 -39 46.5 -65.5t75.5 -26.5h78q39 0 75 26.5t46 65.5l125 539q10 41 23 41q6 0 11 -11.5t7 -29.5l133 -539q8 -39 44 -65.5t77 -26.5h78q43 0 78.5 26.5t44.5 65.5l235 912q4 16 4 22q0 29 -21.5 48.5t-54.5 19.5h-92q-33 0 -61.5 -23.5 t-32.5 -60.5l-119 -600q-8 -43 -20 -43t-19 39l-155 600q-6 39 -38 63.5t-71 24.5h-59q-39 0 -67.5 -22.5t-39.5 -61.5l-143 -604q-6 -39 -20 -39q-10 0 -21 43l-127 600q-6 37 -33.5 60.5t-62.5 23.5h-96q-31 0 -51.5 -19.5t-20.5 -48.5z" />
<glyph unicode="x" horiz-adv-x="958" d="M61 55q0 -23 18.5 -39t47.5 -16h82q35 0 64.5 21.5t48.5 54.5l145 262q6 10 14 10q10 0 15 -10l143 -264q18 -33 47 -53.5t62 -20.5h83q29 0 47.5 15.5t18.5 37.5q0 14 -10 35l-215 401q-12 25 -13 54q0 29 13 53l215 399q8 14 8 33q0 23 -17.5 38t-46.5 15h-79 q-35 0 -66 -21.5t-49 -55.5l-137 -248q-6 -12 -19 -13q-10 0 -18 13l-144 258q-16 31 -42.5 49t-61.5 18h-88q-29 0 -47.5 -16t-18.5 -39q0 -16 9 -31l215 -391q16 -29 16 -61q0 -33 -16 -62l-215 -393q-8 -16 -9 -33z" />
<glyph unicode="y" horiz-adv-x="958" d="M16 975q0 -16 7 -33l325 -917q4 -16 4 -25q0 -6 -4 -35q-37 -131 -119 -131q-12 0 -34 14q-20 8 -31 9q-27 0 -56.5 -20.5t-50.5 -49.5l-4 -6q-14 -20 -14 -47q0 -31 18.5 -59.5t44.5 -39.5q68 -28 145 -28h5q129 0 210 91t146 302l289 946q4 10 4 33q0 41 -28.5 70.5 t-71.5 29.5h-56q-31 0 -57 -22.5t-37 -57.5l-166 -530q-2 -8 -9 -14t-13 -6q-16 0 -23 20l-155 530q-10 37 -38 58.5t-63 21.5h-63q-43 0 -74 -31.5t-31 -72.5z" />
<glyph unicode="z" horiz-adv-x="927" d="M61 936q0 -39 28 -66.5t69 -27.5h223q27 0 44 -13.5t17 -35.5q0 -12 -10 -33l-328 -588q-30 -55 -30 -94q0 -37 23.5 -57.5t70.5 -20.5h580q39 0 67.5 28.5t28.5 67.5v47q0 41 -28 69t-68 28h-277q-16 0 -26.5 16t-2.5 31l11 20q6 12 24.5 51t36.5 68l256 444 q35 63 35 111q0 45 -30 71.5t-91 26.5h-526q-39 0 -68 -27.5t-29 -66.5v-49z" />
<glyph unicode="{" horiz-adv-x="608" d="M80 678q0 -37 25.5 -68.5t62.5 -38.5q2 0 5 -4t6 -18t3 -39q0 -61 -10 -188q-14 -229 -14 -304q0 -147 86 -215.5t227 -68.5h10q8 0 14.5 26.5t6.5 63.5v31q0 35 -5 60.5t-14 23.5h-8q-78 0 -78 102q0 37 4 176q4 168 5 275q0 53 -13.5 87.5t-31 54t-17.5 15.5 q-29 18 -49.5 31.5t-26.5 17.5q8 6 29.5 20.5t46.5 29.5q0 -4 17.5 15t31 54t13.5 86q0 104 -5 277q-4 135 -4 176q0 100 78 100h8q8 -2 13.5 24.5t5.5 63.5v27q0 37 -6.5 63.5t-14.5 26.5h-10q-141 0 -227 -68.5t-86 -216.5q0 -70 14 -299q10 -127 10 -190q0 -25 -3 -39 t-6 -19.5t-5 -5.5q-37 -6 -62.5 -36.5t-25.5 -67.5v-41z" />
<glyph unicode="|" horiz-adv-x="540" d="M147 -336q0 -43 31 -72.5t72 -29.5h39q43 0 73.5 29.5t30.5 72.5v1874q0 41 -30.5 70.5t-73.5 29.5h-39q-41 0 -72 -29.5t-31 -70.5v-1874z" />
<glyph unicode="}" horiz-adv-x="622" d="M96 1540q0 -35 6.5 -59.5t14.5 -22.5h8q78 0 78 -102v-76v-242v-133q0 -53 15 -88t32.5 -54.5t17.5 -14.5q29 -16 49.5 -29.5t26.5 -18.5q-6 -6 -26.5 -18t-49.5 -33q0 4 -16 -15.5t-28.5 -52t-12.5 -81.5q0 -74 10 -305q2 -35 4 -75t2 -79q0 -100 -77 -100h-9 q-8 2 -12 -24t-4 -64v-27q2 -39 8 -64.5t14 -25.5h11q139 2 224 70.5t85 211.5q0 80 -18 301q-14 137 -15 195v10q0 20 3 32.5t5 17t4 4.5q37 6 63 37.5t23 66.5v41q-2 37 -27.5 68.5t-62.5 37.5q-2 0 -5 4.5t-7 18.5t-4 39q0 39 2 81t4 83q12 213 10 327q-2 147 -89 215 t-228 66h-10q-8 0 -14.5 -27.5t-4.5 -64.5v-31z" />
<glyph unicode="~" horiz-adv-x="888" d="M100 655q0 -39 27 -66.5t66 -27.5h2q23 0 43 10.5t34 28.5q10 16 33 16q29 0 94 -28q49 -20 88 -32.5t84 -12.5q178 0 213 162q2 6 2 20q0 39 -26.5 66.5t-67.5 27.5q-51 0 -80 -37q-4 -8 -13 -13t-19 -5q-29 0 -91 29q-53 23 -92 34t-88 11q-90 0 -139 -41t-68 -119 q-2 -8 -2 -23z" />
<glyph unicode="&#xa1;" horiz-adv-x="555" d="M113 920q0 -68 49 -116t117 -48t115.5 48t47.5 116t-48 116.5t-115 48.5q-68 0 -117 -49t-49 -116zM139 -283q0 -53 37 -89t88 -36h41q45 0 76 32t31 79v797q0 51 -35 87t-86 36h-41q-45 0 -78 -33t-33 -78v-795z" />
<glyph unicode="&#xa2;" horiz-adv-x="1085" d="M90 532q0 -170 88 -313t252 -207l-65 -205q-8 -25 7 -45t42 -20q16 0 29.5 9t17.5 26l65 207q49 -10 131 -11q147 0 269 68q41 23 64.5 63.5t23.5 85.5q0 51 -31 97l-8 12q-23 31 -55.5 47t-67.5 16q-37 0 -76 -22q-45 -29 -119 -29q-102 0 -160.5 64.5t-58.5 161.5 q0 92 56.5 159.5t158.5 67.5q51 0 90 -19q23 -10 56 -10q39 0 71.5 17.5t53.5 50.5l28 41q23 35 23 74t-21.5 73.5t-58.5 50.5l-31 17l76 237q8 25 -7 46.5t-42 21.5q-35 0 -49 -37l-74 -240q-59 12 -125 13q-174 0 -299 -80t-189.5 -210t-64.5 -278z" />
<glyph unicode="&#xa3;" horiz-adv-x="1099" d="M66 686q0 -37 26.5 -63.5t61.5 -26.5h18q31 0 52.5 -20.5t21.5 -49.5q0 -156 -86 -303q-18 -27 -19 -65q0 -47 27 -80l41 -55q27 -39 74 -39q23 0 41 8q41 14 96 14q51 0 170 -20q131 -25 203 -25q57 0 112 21q43 14 67.5 49t24.5 78q0 20 -6 41l-4 12q-14 43 -52 67.5 t-83 24.5q-10 0 -35 -4q-33 -12 -84 -12q-57 0 -131 8t-92 10q-20 2 -33.5 18.5t-13.5 38.5q0 10 2 17q41 117 41 229v2q0 14 10 24.5t27 10.5h133q39 0 65.5 26.5t26.5 63.5t-26.5 63.5t-65.5 26.5h-131q-25 0 -42.5 15.5t-21.5 39.5q-20 180 -20 242q0 84 35.5 134 t99.5 50q66 0 113 -71q20 -33 52 -50.5t68 -17.5q37 0 68 19l2 2q31 18 47.5 50t16.5 68q0 33 -15 60q-106 207 -346 207q-219 0 -320.5 -122t-101.5 -329q0 -92 31 -242q2 -23 -12.5 -39t-34.5 -16h-10q-35 0 -61.5 -26.5t-26.5 -63.5z" />
<glyph unicode="&#xa4;" horiz-adv-x="1265" d="M119 344q0 55 37 88l43 43q10 10 10 27q0 4 -4 16q-55 111 -55 217q0 109 55 215q4 12 4 17q0 16 -10 26l-43 43q-37 37 -37 88t37 88t88 37q53 0 86 -37l45 -43q10 -10 26 -10q4 0 17 4q102 53 213 54q115 0 217 -54q12 -4 16 -4q16 0 27 10l43 43q37 37 86 37 q51 0 90 -39q37 -33 37 -86q0 -51 -37 -88l-43 -43q-10 -10 -10 -26q0 -4 4 -17q51 -98 51 -215q0 -119 -51 -217q-4 -12 -4 -16q0 -12 10 -27l43 -43q37 -37 37 -88q0 -53 -37 -86q-37 -37 -88 -37q-49 0 -88 35l-43 43q-8 10 -25 10q-12 0 -18 -4q-98 -51 -217 -51 q-115 0 -213 51q-6 4 -19 4q-16 0 -24 -10l-45 -43q-33 -37 -86 -37q-51 0 -88 37t-37 88zM391 735q0 -100 69.5 -169.5t170.5 -69.5q100 0 170.5 69.5t70.5 169.5q0 101 -70.5 170.5t-170.5 69.5t-170 -69.5t-70 -170.5z" />
<glyph unicode="&#xa5;" horiz-adv-x="966" d="M27 1380q0 -23 4 -32l241 -713q2 -4 2 -12q0 -16 -11 -26.5t-27 -10.5h-117q-12 0 -22.5 -10.5t-10.5 -24.5q0 -16 10 -26.5t23 -10.5h153q16 0 31.5 -10t20.5 -27l8 -24q2 -4 2 -11q0 -10 -8.5 -17t-20.5 -7h-186q-12 0 -22.5 -11.5t-10.5 -25.5t10 -24.5t23 -10.5h186 q16 0 28.5 -12t12.5 -29v-205q0 -41 30 -70.5t70 -29.5h76q41 0 71 29.5t30 70.5v203q0 16 13 29.5t30 13.5h182q16 0 26.5 10.5t10.5 24.5q0 16 -10.5 26.5t-26.5 10.5h-189q-12 0 -19 9t-3 19l8 33q6 16 20.5 25.5t30.5 9.5h152q16 0 26.5 10.5t10.5 26.5q0 14 -11.5 24.5 t-25.5 10.5h-115q-16 0 -26.5 15t-6.5 36l238 711q6 18 6 34q0 41 -29.5 72t-70.5 31h-96q-33 0 -59.5 -22.5t-37.5 -55.5l-133 -475l-12 -53q-2 -14 -21 -15q-14 0 -20 15l-14 53l-134 475q-10 33 -36.5 55.5t-59.5 22.5h-94q-43 0 -71.5 -31t-28.5 -74z" />
<glyph unicode="&#xa7;" horiz-adv-x="1028" d="M86 201q0 29 25 49l108 82q16 12 35 12q33 0 53 -27q39 -45 97.5 -69.5t123.5 -24.5q74 0 117 32t43 79q0 43 -45 68.5t-172 60.5q-125 35 -196.5 63.5t-123 90t-51.5 163.5q0 121 80 197v4q-27 31 -39 67.5t-12 88.5q0 152 104.5 235.5t284.5 83.5q139 0 229.5 -53 t145.5 -158q6 -12 6 -26t-7 -27.5t-22 -22.5l-131 -71q-20 -10 -34 -11q-37 0 -60 37q-29 45 -69.5 66.5t-96.5 21.5q-55 0 -86 -24.5t-31 -61.5q0 -51 52.5 -77.5t163.5 -55.5q115 -31 186.5 -61.5t123.5 -92t52 -161.5q0 -45 -14.5 -88t-42.5 -70v-4q71 -62 71 -168 q0 -94 -54 -179t-157.5 -137t-240.5 -52q-133 0 -235.5 50t-168.5 138q-12 16 -12 33zM307 803q0 -37 39 -55.5t127 -38.5q86 -23 140.5 -42.5t97.5 -54.5q10 27 10 52q0 51 -51.5 75.5t-153.5 48.5q-78 18 -125 36t-61 48q-23 -33 -23 -69z" />
<glyph unicode="&#xa8;" horiz-adv-x="626" d="M45 1343q0 -49 32 -78.5t81 -29.5q53 0 87 29.5t34 78.5q0 53 -33 84t-88 31q-49 0 -81 -30.5t-32 -84.5zM348 1343q0 -49 33 -78.5t82 -29.5q53 0 86 29.5t33 78.5q0 53 -33 84t-86 31q-51 0 -83 -30.5t-32 -84.5z" />
<glyph unicode="&#xa9;" horiz-adv-x="1603" d="M61 717q0 207 97.5 375t267.5 265t377 97t376 -97t266 -266t97 -374q0 -207 -97 -376t-266 -265t-376 -96t-377 96t-267.5 265t-97.5 376zM227 717q0 -164 75 -297t206 -209t295 -76q162 0 292 76t203.5 209t73.5 297t-73.5 296t-203.5 208.5t-292 76.5 q-164 0 -295 -76.5t-206 -208.5t-75 -296zM547 729q0 -145 62.5 -244.5t191.5 -99.5q141 0 200 131q2 4 3 12q0 16 -13 25l-71 47q-11 6 -19 6q-20 0 -33 -22q-23 -43 -67 -43q-90 0 -90 188q0 86 23.5 136t66.5 50q25 0 40 -8t25 -26q12 -23 33 -23q4 0 16 4l70 43 q10 6 13 17.5t-1 21.5q-61 127 -196 127q-129 0 -191.5 -98.5t-62.5 -243.5z" />
<glyph unicode="&#xab;" horiz-adv-x="954" d="M86 678q0 -41 25 -66l145 -163q33 -33 78 -33q41 0 67 28q37 31 37 76q0 43 -35 74l-69 65q-6 4 -36 31t-44 31v2q8 6 29.5 23.5t48.5 39.5l69 72q31 31 31 70q0 43 -37 80q-25 25 -63 24q-45 0 -74 -33l-147 -168q-25 -31 -25 -65v-88zM479 678q0 -41 25 -66l145 -163 q33 -33 78 -33q41 0 68 28q37 31 36 76q0 43 -34 74l-70 65q-6 4 -35.5 31t-44.5 31v2q8 6 29.5 23.5t48.5 39.5l70 72q31 31 30 70q0 43 -37 80q-25 25 -63 24q-45 0 -74 -33l-147 -168q-25 -31 -25 -65v-88z" />
<glyph unicode="&#xad;" horiz-adv-x="917" d="M59 653q0 -51 36 -87t87 -36h553q49 0 86 36t37 87t-37 86t-86 35h-553q-53 0 -88 -34.5t-35 -86.5z" />
<glyph unicode="&#xae;" horiz-adv-x="1603" d="M61 717q0 207 97.5 375t267.5 265t377 97t376 -97t266 -266t97 -374q0 -207 -97 -376t-266 -265t-376 -96t-377 96t-267.5 265t-97.5 376zM227 717q0 -164 75 -297t206 -209t295 -76q162 0 292 76t203.5 209t73.5 297t-73.5 296t-203.5 208.5t-292 76.5 q-164 0 -295 -76.5t-206 -208.5t-75 -296zM586 463v532q0 29 18.5 46.5t44.5 17.5h152q123 0 188.5 -60.5t65.5 -175.5q0 -131 -86 -192l53 -131q6 -18 6 -33q0 -29 -19.5 -48.5t-52.5 -19.5h-53q-18 1 -24 19l-70 170h-59v-125q0 -27 -17.5 -45.5t-46.5 -18.5h-37 q-27 0 -45 18.5t-18 45.5zM750 774q0 -14 8 -22.5t22 -8.5h25q49 0 67.5 20.5t18.5 59.5t-18.5 59.5t-67.5 20.5h-25q-14 0 -22 -8t-8 -23v-98z" />
<glyph unicode="&#xaf;" horiz-adv-x="657" d="M45 1335q0 -29 21.5 -50t52.5 -21h422q28 0 49.5 21.5t21.5 49.5q0 31 -21.5 52.5t-49.5 21.5h-422q-31 0 -52.5 -21.5t-21.5 -52.5z" />
<glyph unicode="&#xb0;" horiz-adv-x="626" d="M0 1178q0 -137 88 -216t225 -79q142 0 228 78.5t86 216.5q0 131 -87 216t-227 85q-88 0 -159.5 -39t-112.5 -107.5t-41 -154.5zM217 1178q0 41 27.5 68.5t68.5 27.5q39 0 68 -27.5t29 -68.5t-29 -69t-68 -28q-41 0 -68.5 28t-27.5 69z" />
<glyph unicode="&#xb4;" horiz-adv-x="450" d="M-18 1376q0 -25 10 -41q12 -26 35.5 -41.5t52.5 -15.5q18 0 33 6l290 125q27 10 42.5 34.5t15.5 53.5q0 20 -8 37l-11 20q-10 23 -32.5 37.5t-49.5 14.5q-23 0 -43 -13l-284 -139q-25 -10 -38 -31.5t-13 -46.5z" />
<glyph unicode="&#xb7;" horiz-adv-x="458" d="M82 590q0 -62 44 -106t105 -44q59 0 102.5 44t43.5 106q0 59 -44 104t-102 45q-61 0 -105 -45t-44 -104z" />
<glyph unicode="&#xb8;" horiz-adv-x="1284" d="M410 -150q0 12 2 19l22 104q4 14 14.5 21.5t24.5 5.5q37 -6 86 -10q12 -2 20.5 -11.5t6.5 -21.5v-2v-6q0 -12 9 -20.5t23 -6.5h21q100 0 167.5 -60.5t67.5 -164.5q0 -121 -74.5 -179.5t-178.5 -58.5q-90 0 -152 39q-41 23 -41 66q0 39 31 59l10 6q20 14 47 15q23 0 39 -9 q29 -16 57 -16q45 0 69 23.5t24 60.5q0 39 -24 63.5t-69 24.5q-20 0 -49 -14q-20 -10 -51 -10q-27 0 -45 10l-16 8q-18 8 -29.5 26.5t-11.5 38.5z" />
<glyph unicode="&#xbb;" horiz-adv-x="954" d="M123 520q0 -45 37 -76q27 -29 67 -28q45 0 78 33l146 163q25 25 24 66v88q0 35 -24 65l-148 168q-29 33 -74 33q-39 0 -63 -24q-37 -37 -37 -80q0 -39 31 -70l69 -72q27 -22 48.5 -39.5t29.5 -23.5v-2q-14 -4 -44 -30.5t-36 -31.5l-69 -65q-35 -31 -35 -74zM516 520 q0 -45 37 -76q27 -29 68 -28q45 0 77 33l146 163q25 25 24 66v88q0 35 -24 65l-148 168q-29 33 -73 33q-39 0 -64 -24q-37 -37 -37 -80q0 -39 31 -70l70 -72q26 -22 47.5 -39.5t29.5 -23.5v-2q-14 -4 -43.5 -30.5t-35.5 -31.5l-70 -65q-35 -31 -35 -74z" />
<glyph unicode="&#xbf;" horiz-adv-x="940" d="M37 -12q0 -180 116.5 -289t323.5 -109q139 0 240.5 62.5t163.5 171.5q14 27 14 57q0 29 -13.5 54.5t-37.5 41.5l-35 25q-29 20 -66 21q-31 0 -59.5 -16.5t-44.5 -47.5q-27 -49 -70 -76.5t-96 -27.5q-70 0 -107.5 36.5t-37.5 92.5q0 53 29.5 93t93.5 97q76 72 114.5 113 t71.5 102.5t33 132.5q0 41 -8 74q-10 45 -47 69.5t-85 24.5q-31 0 -61 -12l-33 -19q-27 -14 -42 -39.5t-15 -54.5q0 -14 2 -20l2 -27q0 -37 -22.5 -66.5t-52 -56t-42.5 -39.5q-14 -12 -82.5 -72.5t-107.5 -136t-39 -159.5zM315 948q0 -68 48.5 -117t115.5 -49q70 0 119 49.5 t49 116.5q0 70 -49 119t-119 49q-68 0 -116 -49t-48 -119z" />
<glyph unicode="&#xc0;" horiz-adv-x="1011" d="M41 88q0 -53 28.5 -70.5t73.5 -17.5h43q47 0 76 20.5t45 75.5l31 113q2 8 12 43t31.5 52.5t56.5 17.5h129q51 0 68.5 -28t30.5 -85l30 -113q16 -55 45 -75.5t78 -20.5h45q106 0 107 92q0 23 -6 49l-285 1190q-10 41 -45 72t-78 31h-104q-41 0 -76 -31t-45 -72l-283 -1186 q-8 -31 -8 -57zM266 1755q0 -29 15.5 -53.5t42.5 -34.5l290 -125q16 -6 33 -6q29 0 52.5 15.5t35.5 41.5q10 16 10 41t-13 46.5t-38 31.5l-284 139q-23 12 -43 13q-27 0 -49.5 -14.5t-32.5 -37.5l-11 -20q-8 -16 -8 -37zM420 612q0 12 10 68l27 147l30 152q2 8 7.5 14t9.5 6 q14 0 16 -24l29 -148l29 -149q2 -12 7 -34.5t5 -35.5q0 -25 -15.5 -38t-52.5 -13h-33q-70 0 -69 55z" />
<glyph unicode="&#xc1;" horiz-adv-x="1011" d="M41 88q0 -53 28.5 -70.5t73.5 -17.5h43q47 0 76 20.5t45 75.5l31 113q2 8 12 43t31.5 52.5t56.5 17.5h129q51 0 68.5 -28t30.5 -85l30 -113q16 -55 45 -75.5t78 -20.5h45q106 0 107 92q0 23 -6 49l-285 1190q-10 41 -45 72t-78 31h-104q-41 0 -76 -31t-45 -72l-283 -1186 q-8 -31 -8 -57zM266 1634q0 -25 10 -41q13 -26 36.5 -41.5t52.5 -15.5q18 0 32 6l291 125q27 10 42 34.5t15 53.5q0 20 -8 37l-10 20q-10 23 -32.5 37.5t-49.5 14.5q-20 0 -43 -13l-285 -139q-25 -10 -38 -31.5t-13 -46.5zM424 625q0 29 6 55l27 147l30 152q2 8 7.5 14 t9.5 6q14 0 16 -24l29 -148l29 -149q8 -41 8 -62q0 -59 -64 -59h-33q-66 0 -65 68z" />
<glyph unicode="&#xc2;" horiz-adv-x="1011" d="M41 88q0 -53 28.5 -70.5t73.5 -17.5h43q47 0 76 20.5t45 75.5l31 113q2 8 12 43t31.5 52.5t56.5 17.5h129q51 0 68.5 -28t30.5 -85l30 -113q16 -55 45 -75.5t78 -20.5h45q106 0 107 92q0 23 -6 49l-285 1190q-10 41 -45 72t-78 31h-104q-41 0 -76 -31t-45 -72l-283 -1186 q-8 -31 -8 -57zM238 1626q0 -35 24 -57q27 -33 66 -33t63 29l62 61q4 6 25.5 30.5t25.5 37.5h2l55 -68l60 -61q27 -27 61 -27q41 0 68 31q23 23 22 57q0 39 -27 62l-141 131q-31 20 -59 20h-76q-37 0 -57 -20l-144 -125q-31 -27 -30 -68zM420 612q0 12 10 68l27 147l30 152 q2 8 7.5 14t9.5 6q14 0 16 -24l29 -148l29 -149q2 -12 7 -34.5t5 -35.5q0 -25 -15.5 -38t-52.5 -13h-33q-70 0 -69 55z" />
<glyph unicode="&#xc3;" horiz-adv-x="1011" d="M41 88q0 -53 28.5 -70.5t73.5 -17.5h43q47 0 76 20.5t45 75.5l31 113q2 8 12 43t31.5 52.5t56.5 17.5h129q51 0 68.5 -28t30.5 -85l30 -113q16 -55 45 -75.5t78 -20.5h45q106 0 107 92q0 23 -6 49l-285 1190q-10 41 -45 72t-78 31h-104q-41 0 -76 -31t-45 -72l-283 -1186 q-8 -31 -8 -57zM231 1700q0 -31 21.5 -53.5t52.5 -22.5h2q16 0 33.5 8t28.5 23q10 14 26 14q23 0 76 -22q39 -16 70.5 -26.5t66.5 -10.5q141 0 170 129q2 6 2 16q0 31 -21.5 53.5t-53.5 22.5q-41 0 -64 -31q-6 -14 -27 -14q-20 0 -73 22q-43 18 -74 27.5t-68 9.5 q-72 0 -111.5 -31.5t-54.5 -95.5q-2 -6 -2 -18zM420 612q0 12 10 68l27 147l30 152q2 8 7.5 14t9.5 6q14 0 16 -24l29 -148l29 -149q2 -12 7 -34.5t5 -35.5q0 -25 -15.5 -38t-52.5 -13h-33q-70 0 -69 55z" />
<glyph unicode="&#xc4;" horiz-adv-x="1011" d="M41 88q0 -53 28.5 -70.5t73.5 -17.5h43q47 0 76 20.5t45 75.5l31 113q2 8 12 43t31.5 52.5t56.5 17.5h129q51 0 68.5 -28t30.5 -85l30 -113q16 -55 45 -75.5t78 -20.5h45q106 0 107 92q0 23 -6 49l-285 1190q-10 41 -45 72t-78 31h-104q-41 0 -76 -31t-45 -72l-283 -1186 q-8 -31 -8 -57zM213 1667q0 -55 35 -87t92 -32q55 0 92 33t37 86q0 55 -37 90t-92 35q-57 0 -92 -34t-35 -91zM420 612q0 12 10 68l27 147l30 152q2 8 7.5 14t9.5 6q14 0 16 -24l29 -148l29 -149q2 -12 7 -34.5t5 -35.5q0 -25 -15.5 -38t-52.5 -13h-33q-70 0 -69 55z M541 1667q0 -53 35.5 -86t91.5 -33q55 0 90 32t35 87t-35 90t-90 35t-91 -35t-36 -90z" />
<glyph unicode="&#xc5;" horiz-adv-x="1011" d="M41 88q0 -53 28.5 -70.5t73.5 -17.5h43q47 0 76 20.5t45 75.5l31 113q2 8 12 43t31.5 52.5t56.5 17.5h129q51 0 68.5 -28t30.5 -85l30 -113q16 -55 45 -75.5t78 -20.5h45q106 0 107 92q0 23 -6 49l-285 1190q-10 41 -45 72t-78 31h-104q-41 0 -76 -31t-45 -72l-283 -1186 q-8 -31 -8 -57zM268 1761q0 -102 66.5 -161.5t169.5 -59.5q106 0 170.5 59.5t64.5 161.5q0 98 -65.5 162t-169.5 64q-100 0 -168 -63.5t-68 -162.5zM420 612q0 12 10 68l27 147l30 152q2 8 7.5 14t9.5 6q14 0 16 -24l29 -148l29 -149q2 -12 7 -34.5t5 -35.5q0 -25 -15.5 -38 t-52.5 -13h-33q-70 0 -69 55zM432 1761q0 31 20.5 51.5t51.5 20.5q28 0 49.5 -20.5t21.5 -51.5t-21.5 -51t-49.5 -20q-31 0 -51.5 20.5t-20.5 50.5z" />
<glyph unicode="&#xc6;" horiz-adv-x="1581" d="M6 57q0 20 8 39l535 1235q16 41 57 72t82 31h645q43 0 73 -30t30 -71v-55q0 -41 -30 -69.5t-73 -28.5h-293q-39 0 -69.5 -32t-30.5 -73v-98q0 -39 30.5 -69.5t69.5 -30.5h156q43 0 72.5 -31t29.5 -72v-55q0 -41 -29.5 -71t-72.5 -30h-156q-41 0 -70.5 -29.5t-29.5 -72.5 v-145l2 -31q6 -35 35 -59.5t63 -24.5h293q43 0 73 -30.5t30 -71.5v-50q0 -45 -30 -74.5t-73 -29.5h-557h-2q-43 2 -70.5 28.5t-29.5 67.5v117q-2 51 -19.5 73.5t-85.5 22.5h-82q-66 0 -90 -18.5t-53 -79.5l-59 -115q-14 -41 -55.5 -68.5t-84.5 -27.5h-71q-33 0 -50.5 15.5 t-17.5 41.5zM496 596q0 -43 61 -43h33q43 0 61.5 17.5t18.5 60.5v344v8q0 16 -11 16q-12 0 -22 -20l-59 -152l-72 -190q-10 -27 -10 -41z" />
<glyph unicode="&#xc7;" horiz-adv-x="966" d="M53 717q0 197 55.5 359.5t172 260t290.5 97.5q233 0 371 -181q27 -33 27 -75q0 -35 -16.5 -64t-47.5 -47l-4 -2q-27 -16 -63 -16q-61 0 -99 47q-70 88 -168 88q-119 0 -189.5 -126t-70.5 -341q0 -219 71 -344t189 -125q106 0 177 96q18 27 45.5 41t58.5 14q29 0 53 -12 q0 -2 1 -2h1q35 -16 54.5 -47t19.5 -68t-23 -71q-139 -199 -387 -199q-174 0 -290.5 96.5t-172 259t-55.5 361.5zM358 47q37 45 107 45q51 0 95 -21.5t65 -58.5q-7 0 -18 -6t-19 -6q-12 0 -22.5 -21.5t-16.5 -50.5q10 -37 33 -32h20q100 0 168 -60.5t68 -165.5 q0 -121 -75 -179t-179 -58q-90 0 -152 39q-41 23 -41 65q0 37 31 60l10 6q20 14 47 14q23 0 39 -8q29 -16 57 -17q45 0 69 24t24 60q0 39 -23.5 63.5t-69.5 24.5q-20 0 -49 -14q-20 -10 -51 -10q-27 0 -45 10l-16 8q-18 8 -29.5 26.5t-11.5 39.5q0 12 2 18l22 105q2 6 2 20 q0 25 -11 48.5t-30 31.5z" />
<glyph unicode="&#xc8;" horiz-adv-x="1075" d="M168 104q0 -45 29.5 -74.5t74.5 -29.5h555q43 0 73 29.5t30 74.5v50q0 41 -30 71.5t-73 30.5h-292q-39 0 -70 30.5t-31 69.5v160q0 43 30 72.5t71 29.5h176q43 0 72.5 30t29.5 71v55q0 41 -29.5 72t-72.5 31h-176q-39 0 -70 30.5t-31 69.5v98q0 41 31 73t70 32h292 q43 0 73 28.5t30 69.5v55q0 41 -30 71t-73 30h-555q-45 0 -74.5 -29t-29.5 -72v-1229zM285 1755q0 -29 15 -53.5t42 -34.5l291 -125q16 -6 33 -6q29 0 52 15.5t36 41.5q10 16 10 41t-13.5 46.5t-37.5 31.5l-285 139q-20 12 -43 13q-27 0 -49.5 -14.5t-32.5 -37.5l-10 -20 q-8 -16 -8 -37z" />
<glyph unicode="&#xc9;" horiz-adv-x="1075" d="M168 104q0 -45 29.5 -74.5t74.5 -29.5h555q43 0 73 29.5t30 74.5v50q0 41 -30 71.5t-73 30.5h-292q-39 0 -70 30.5t-31 69.5v160q0 43 30 72.5t71 29.5h176q43 0 72.5 30t29.5 71v55q0 41 -29.5 72t-72.5 31h-176q-39 0 -70 30.5t-31 69.5v98q0 41 31 73t70 32h292 q43 0 73 28.5t30 69.5v55q0 41 -30 71t-73 30h-555q-45 0 -74.5 -29t-29.5 -72v-1229zM326 1632q0 -25 10 -41q12 -26 35.5 -41.5t52.5 -15.5q18 0 33 6l291 125q27 10 42 34.5t15 53.5q0 20 -8 37l-11 20q-10 23 -32.5 37.5t-48.5 14.5q-20 0 -43 -13l-285 -139 q-25 -10 -38 -31.5t-13 -46.5z" />
<glyph unicode="&#xca;" horiz-adv-x="1075" d="M168 104q0 -45 29.5 -74.5t74.5 -29.5h555q43 0 73 29.5t30 74.5v50q0 41 -30 71.5t-73 30.5h-292q-39 0 -70 30.5t-31 69.5v160q0 43 30 72.5t71 29.5h176q43 0 72.5 30t29.5 71v55q0 41 -29.5 72t-72.5 31h-176q-39 0 -70 30.5t-31 69.5v98q0 41 31 73t70 32h292 q43 0 73 28.5t30 69.5v55q0 41 -30 71t-73 30h-555q-45 0 -74.5 -29t-29.5 -72v-1229zM301 1622q0 -35 25 -57q27 -33 65 -33q39 0 64 29l61 61q4 6 25.5 30.5t25.5 37.5h2l56 -68l59 -61q27 -27 61 -27q41 0 68 31q23 23 23 57q0 39 -27 61l-141 132q-31 20 -60 20h-76 q-37 0 -57 -20l-143 -125q-31 -27 -31 -68z" />
<glyph unicode="&#xcb;" horiz-adv-x="1075" d="M168 104q0 -45 29.5 -74.5t74.5 -29.5h555q43 0 73 29.5t30 74.5v50q0 41 -30 71.5t-73 30.5h-292q-39 0 -70 30.5t-31 69.5v160q0 43 30 72.5t71 29.5h176q43 0 72.5 30t29.5 71v55q0 41 -29.5 72t-72.5 31h-176q-39 0 -70 30.5t-31 69.5v98q0 41 31 73t70 32h292 q43 0 73 28.5t30 69.5v55q0 41 -30 71t-73 30h-555q-45 0 -74.5 -29t-29.5 -72v-1229zM291 1642q0 -49 31.5 -78.5t80.5 -29.5q54 0 87.5 29.5t33.5 78.5q0 53 -32.5 84t-88.5 31q-49 0 -80.5 -30.5t-31.5 -84.5zM594 1642q0 -49 32.5 -78.5t82.5 -29.5q53 0 85.5 29.5 t32.5 78.5q0 53 -32.5 84t-85.5 31q-51 0 -83 -30.5t-32 -84.5z" />
<glyph unicode="&#xcc;" horiz-adv-x="489" d="M-25 1798q0 -29 15.5 -53.5t42.5 -34.5l291 -125q16 -6 32 -6q29 0 52.5 15.5t35.5 41.5q11 16 11 41t-13.5 46.5t-38.5 31.5l-284 139q-23 12 -43 13q-27 0 -49.5 -14.5t-32.5 -37.5l-10 -20q-8 -16 -9 -37zM111 100q0 -41 29.5 -71.5t72.5 -30.5h61q41 0 72 30.5 t31 71.5v1291q0 43 -31 72.5t-72 29.5h-61q-43 0 -72.5 -29.5t-29.5 -72.5v-1291z" />
<glyph unicode="&#xcd;" horiz-adv-x="489" d="M20 1634q0 -25 11 -41q12 -26 35.5 -41.5t52.5 -15.5q18 0 33 6l290 125q27 10 42.5 34.5t15.5 53.5q0 20 -8 37l-11 20q-10 23 -32.5 37.5t-49.5 14.5q-20 0 -43 -13l-284 -139q-25 -10 -38.5 -31.5t-13.5 -46.5zM84 100q0 -41 29.5 -71.5t72.5 -30.5h62q41 0 71.5 30.5 t30.5 71.5v1291q0 43 -30.5 72.5t-71.5 29.5h-62q-43 0 -72.5 -29.5t-29.5 -72.5v-1291z" />
<glyph unicode="&#xce;" horiz-adv-x="417" d="M-53 1626q0 -35 24 -57q27 -33 66 -33t63 29l62 61q4 6 25.5 30.5t25.5 37.5h2l55 -68l60 -61q27 -27 61 -27q41 0 68 31q23 23 22 57q0 39 -26 62l-142 131q-31 20 -59 20h-76q-37 0 -57 -20l-144 -125q-31 -27 -30 -68zM78 100q0 -41 29.5 -71.5t72.5 -30.5h62 q41 0 71.5 30.5t30.5 71.5v1291q0 43 -30.5 72.5t-71.5 29.5h-62q-43 0 -72.5 -29.5t-29.5 -72.5v-1291z" />
<glyph unicode="&#xcf;" horiz-adv-x="559" d="M14 1683q0 -49 32 -78.5t81 -29.5q53 0 87 29.5t34 78.5q0 53 -33 84t-88 31q-49 0 -81 -30.5t-32 -84.5zM143 100q0 -41 30 -71.5t73 -30.5h61q41 0 72 30.5t31 71.5v1291q0 43 -31 72.5t-72 29.5h-61q-43 0 -73 -29.5t-30 -72.5v-1291zM317 1683q0 -49 33 -78.5 t82 -29.5q53 0 86 29.5t33 78.5q0 53 -33 84t-86 31q-51 0 -83 -30.5t-32 -84.5z" />
<glyph unicode="&#xd0;" horiz-adv-x="1214" d="M39 719q0 -41 29.5 -68.5t72.5 -27.5q4 0 10.5 -7.5t6.5 -13.5v-475q0 -53 36.5 -90t90.5 -37h247q313 0 447.5 200.5t134.5 518.5q0 315 -134 515t-448 200h-247q-53 0 -90 -37t-37 -86v-473q0 -8 -6.5 -14.5t-10.5 -6.5q-43 0 -72.5 -28.5t-29.5 -69.5zM422 342v225 q0 23 16.5 39.5t34.5 16.5h33q45 0 73.5 27.5t28.5 68.5t-28.5 69.5t-73.5 28.5h-33q-18 0 -34.5 16.5t-16.5 36.5v224q0 35 26.5 60.5t61.5 25.5h22q168 0 242 -126t74 -335q0 -213 -74 -338t-242 -125h-22q-35 0 -61.5 25.5t-26.5 60.5z" />
<glyph unicode="&#xd1;" horiz-adv-x="1261" d="M168 106q0 -45 31.5 -75.5t76.5 -30.5h23q43 0 73.5 30.5t30.5 75.5v697q0 14 5.5 22.5t11.5 8.5q12 0 22 -21l398 -754q10 -22 40.5 -40.5t55.5 -18.5h59q39 0 69 31.5t30 74.5v1219q0 47 -30 78t-69 31h-32q-47 0 -78 -31t-31 -78v-668q0 -49 -10 -49q-6 0 -27 39 l-362 717q-14 31 -46 50.5t-73 19.5h-60q-47 0 -77.5 -31t-30.5 -78v-1219zM356 1626q0 -31 21.5 -53.5t52.5 -22.5h2q16 0 33.5 8.5t28.5 22.5q10 14 26 14q23 0 76 -22q39 -16 70.5 -26.5t66.5 -10.5q141 0 170 129q2 6 2 16q0 31 -21.5 53.5t-54.5 22.5q-40 0 -63 -31 q-6 -14 -27 -14q-20 0 -73 23q-43 18 -74 27.5t-68 9.5q-72 0 -111.5 -32t-54.5 -95q-2 -6 -2 -19z" />
<glyph unicode="&#xd2;" horiz-adv-x="1220" d="M90 717q0 -199 55.5 -361.5t172 -259t290.5 -96.5t292 96.5t174 259t56 361.5q0 197 -56 359.5t-174 260t-292 97.5t-290.5 -97.5t-172 -260.5t-55.5 -359zM348 717q0 215 70.5 341t189.5 126q121 0 193.5 -126t72.5 -341q0 -219 -72.5 -344t-193.5 -125 q-119 0 -189.5 125t-70.5 344zM371 1755q0 -29 15 -53.5t42 -34.5l291 -125q14 -6 33 -6q29 0 52 15.5t36 41.5q10 16 10 41t-13.5 46.5t-37.5 31.5l-285 139q-23 12 -43 13q-27 0 -49.5 -14.5t-32.5 -37.5l-10 -20q-8 -16 -8 -37z" />
<glyph unicode="&#xd3;" horiz-adv-x="1220" d="M90 717q0 -199 55.5 -361.5t172 -259t290.5 -96.5t292 96.5t174 259t56 361.5q0 197 -56 359.5t-174 260t-292 97.5t-290.5 -97.5t-172 -260.5t-55.5 -359zM348 717q0 215 70.5 341t189.5 126q121 0 193.5 -126t72.5 -341q0 -219 -72.5 -344t-193.5 -125 q-119 0 -189.5 125t-70.5 344zM371 1634q0 -25 10 -41q12 -26 35.5 -41.5t52.5 -15.5q18 0 33 6l291 125q27 10 42 34.5t15 53.5q0 20 -8 37l-11 20q-10 23 -32.5 37.5t-48.5 14.5q-23 0 -43 -13l-285 -139q-25 -10 -38 -31.5t-13 -46.5z" />
<glyph unicode="&#xd4;" horiz-adv-x="1220" d="M90 717q0 -199 55.5 -361.5t172 -259t290.5 -96.5t292 96.5t174 259t56 361.5q0 197 -56 359.5t-174 260t-292 97.5t-290.5 -97.5t-172 -260.5t-55.5 -359zM342 1626q0 -35 25 -57q27 -33 65 -33q39 0 64 29l61 61q4 6 25.5 30.5t25.5 37.5h2l56 -68l59 -61 q27 -27 61 -27q41 0 68 31q23 23 23 57q0 39 -27 62l-141 131q-31 20 -60 20h-76q-37 0 -57 -20l-143 -125q-31 -27 -31 -68zM348 717q0 215 70.5 341t189.5 126q121 0 193.5 -126t72.5 -341q0 -219 -72.5 -344t-193.5 -125q-119 0 -189.5 125t-70.5 344z" />
<glyph unicode="&#xd5;" horiz-adv-x="1220" d="M90 717q0 -199 55.5 -361.5t172 -259t290.5 -96.5t292 96.5t174 259t56 361.5q0 197 -56 359.5t-174 260t-292 97.5t-290.5 -97.5t-172 -260.5t-55.5 -359zM336 1626q0 -31 21.5 -53.5t52.5 -22.5h2q16 0 33.5 8.5t27.5 22.5t27 14q23 0 75 -22q39 -16 71 -26.5t67 -10.5 q141 0 170 129q2 6 2 16q0 31 -21.5 53.5t-54.5 22.5q-41 0 -64 -31q-6 -14 -26 -14t-74 23q-43 18 -73.5 27.5t-67.5 9.5q-72 0 -112 -32t-54 -95q-2 -6 -2 -19zM348 717q0 215 70.5 341t189.5 126q121 0 193.5 -126t72.5 -341q0 -219 -72.5 -344t-193.5 -125 q-119 0 -189.5 125t-70.5 344z" />
<glyph unicode="&#xd6;" horiz-adv-x="1222" d="M90 717q0 -199 56.5 -361.5t173 -259t290.5 -96.5t292 96.5t174.5 259t56.5 361.5t-56.5 361.5t-174.5 259t-292 96.5t-290.5 -96.5t-173 -259.5t-56.5 -361zM326 1640q0 -53 33.5 -83.5t86.5 -30.5q56 0 90.5 30.5t34.5 83.5t-34.5 86t-90.5 33q-53 0 -86.5 -32.5 t-33.5 -86.5zM350 717q0 215 71 341t189 126q121 0 191.5 -125t70.5 -342t-70.5 -342t-191.5 -125q-119 0 -189.5 125t-70.5 342zM643 1640q0 -53 35 -83.5t90 -30.5t88 30.5t33 83.5t-34 86t-87 33q-55 0 -90 -32.5t-35 -86.5z" />
<glyph unicode="&#xd8;" horiz-adv-x="1218" d="M90 719q0 -199 56.5 -359.5t173 -257t290.5 -96.5t291 96.5t172 258t55 358.5q0 199 -55 360.5t-172 258t-291 96.5t-290.5 -96.5t-173 -258t-56.5 -360.5zM348 719q0 217 70.5 342t191.5 125q55 0 101 -33q35 -29 34 -68q0 -23 -10 -38l-313 -521q-8 -18 -29 -18 q-12 0 -21.5 7t-11.5 22q-12 84 -12 182zM471 360q0 25 12 46l312 518q10 18 30 18q12 0 21.5 -7t11.5 -22q12 -86 12 -194q0 -215 -70.5 -340t-189.5 -125q-57 0 -98 31q-41 29 -41 75z" />
<glyph unicode="&#xd9;" horiz-adv-x="1222" d="M158 496q0 -248 124 -372t332 -124q207 0 329 124t122 372v847q0 37 -29.5 64t-68.5 27h-70q-41 0 -67.5 -26t-26.5 -65v-858q0 -113 -44 -171t-149 -58q-102 0 -147 57.5t-45 165.5v864q0 37 -29 64t-67 27h-70q-43 0 -68.5 -26t-25.5 -65v-847zM371 1755 q0 -29 15 -53.5t42 -34.5l291 -125q14 -6 33 -6q29 0 52 15.5t36 41.5q10 16 10 41t-13.5 46.5t-37.5 31.5l-285 139q-23 12 -43 13q-27 0 -49.5 -14.5t-32.5 -37.5l-10 -20q-8 -16 -8 -37z" />
<glyph unicode="&#xda;" horiz-adv-x="1181" d="M158 496q0 -246 120.5 -371t315.5 -125q193 0 311.5 125t118.5 371v847q0 37 -29.5 64t-68.5 27h-70q-41 0 -67.5 -26t-26.5 -65v-858q0 -111 -40 -170t-132 -59q-172 0 -172 223v864q0 37 -29 64t-67 27h-70q-43 0 -68.5 -26t-25.5 -65v-847zM352 1634q0 -25 10 -41 q13 -26 36.5 -41.5t52.5 -15.5q16 0 32 6l291 125q27 10 42 34.5t15 53.5q0 20 -8 37l-10 20q-10 23 -32.5 37.5t-49.5 14.5q-20 0 -43 -13l-285 -139q-25 -10 -38 -31.5t-13 -46.5z" />
<glyph unicode="&#xdb;" horiz-adv-x="1222" d="M158 496q0 -248 124 -372t332 -124q207 0 329 124t122 372v847q0 37 -29.5 64t-68.5 27h-70q-41 0 -67.5 -26t-26.5 -65v-858q0 -113 -44 -171t-149 -58q-102 0 -147 57.5t-45 165.5v864q0 37 -29 64t-67 27h-70q-43 0 -68.5 -26t-25.5 -65v-847zM344 1626q0 -35 25 -57 q27 -33 65 -33q39 0 64 29l61 61q4 6 25.5 30.5t25.5 37.5h2l56 -68l59 -61q27 -27 61 -27q41 0 68 31q23 23 23 57q0 39 -27 62l-141 131q-31 20 -60 20h-76q-37 0 -57 -20l-143 -125q-31 -27 -31 -68z" />
<glyph unicode="&#xdc;" horiz-adv-x="1222" d="M158 496v847q0 39 25.5 65t68.5 26h70q39 0 67.5 -27t28.5 -64v-864q0 -109 45 -166t147 -57q104 0 148.5 58.5t44.5 170.5v858q0 39 26.5 65t67.5 26h70q39 0 68.5 -27t29.5 -64v-847q0 -248 -122 -372t-329 -124q-209 0 -332.5 124t-123.5 372zM322 1667q0 57 34.5 91 t92.5 34q55 0 92 -35t37 -90q0 -53 -37 -86t-92 -33q-58 0 -92.5 32t-34.5 87zM649 1667q0 55 36 90t91 35t90 -35t35 -90t-35 -87t-90 -32t-91 33t-36 86z" />
<glyph unicode="&#xdd;" horiz-adv-x="1167" d="M23 1368q0 -18 8 -33l383 -755q41 -82 41 -185q0 -29 -2 -52.5t-2 -41.5v-199q0 -43 29.5 -72.5t72.5 -29.5h61q41 0 72 29.5t31 72.5v185q0 18 -2 43.5t-2 58.5q0 111 35 178l389 768q8 20 8 29q0 29 -23.5 49.5t-56.5 20.5h-119q-37 0 -57.5 -22.5t-50.5 -80.5 l-230 -416q-8 -14 -14 -24t-10 -10q-8 0 -27 34l-231 416q-29 53 -51.5 78t-59.5 25h-113q-33 0 -56 -18.5t-23 -47.5zM344 1634q0 -25 10 -41q13 -26 36.5 -41.5t51.5 -15.5q16 0 33 6l291 125q27 10 42 34.5t15 53.5q0 20 -8 37l-10 20q-10 23 -32.5 37.5t-49.5 14.5 q-23 0 -43 -13l-285 -139q-25 -10 -38 -31.5t-13 -46.5z" />
<glyph unicode="&#xde;" horiz-adv-x="1253" d="M168 92v1450q0 41 26.5 68.5t65.5 27.5h68q39 0 64.5 -27.5t25.5 -68.5v-170h313q156 0 259.5 -72.5t152.5 -189.5t49 -250t-55.5 -252t-169 -194.5t-279.5 -75.5h-164q-37 0 -63.5 -27.5t-26.5 -66.5v-152q0 -39 -26.5 -65.5t-65.5 -26.5h-84q-37 0 -63.5 26.5 t-26.5 65.5zM434 686q0 -39 26.5 -65.5t63.5 -26.5h176q109 0 167.5 75.5t58.5 188.5q0 115 -59.5 190.5t-166.5 75.5h-176q-37 0 -63.5 -27.5t-26.5 -66.5v-344z" />
<glyph unicode="&#xdf;" horiz-adv-x="1095" d="M143 102q0 -47 33 -79.5t80 -32.5h37q47 0 80 32.5t33 79.5v1053q0 66 39.5 103.5t93.5 37.5q47 0 80.5 -28.5t33.5 -79.5q0 -35 -16 -61.5t-53 -69.5q-53 -57 -83 -114.5t-30 -149.5q0 -84 26.5 -142.5t64.5 -93.5t100 -80q63 -45 92.5 -78.5t29.5 -83.5 q0 -53 -34.5 -82.5t-94.5 -29.5h-6q-35 0 -63.5 -18.5t-42.5 -51.5l-4 -10q-8 -18 -9 -41q0 -45 32 -78t79 -33h2q186 0 286.5 96.5t100.5 262.5q0 88 -27.5 149.5t-65.5 98t-97 79.5t-86 74t-27 74q0 35 15.5 59.5t50.5 63.5q49 57 76.5 109.5t27.5 142.5q0 170 -107.5 255 t-261.5 85q-170 0 -277.5 -101.5t-107.5 -281.5v-1035z" />
<glyph unicode="&#xe0;" horiz-adv-x="993" d="M84 303q0 -143 74.5 -234.5t218.5 -91.5q117 0 207 80q10 10 22 11q12 0 23.5 -8.5t13.5 -22.5v-2q6 -19 20.5 -29t30.5 -10h129q27 0 45.5 21.5t14.5 48.5q-10 51 -11 92v510q0 221 -99 328.5t-253 107.5q-90 0 -155.5 -21.5t-135.5 -81.5q-33 -33 -32 -71q0 -29 22 -56 l39 -49q10 -16 39 -16q35 0 70 29q31 25 54 37t56 12q76 0 110 -50.5t34 -142.5q0 -18 -11.5 -31.5t-25.5 -13.5q-254 -8 -377 -100t-123 -246zM262 1413q0 -29 15.5 -53.5t41.5 -34.5l291 -125q16 -6 33 -6q29 0 52.5 15.5t35.5 41.5q10 16 10 41t-13 46.5t-38 31.5 l-284 139q-23 12 -44 13q-27 0 -49 -14.5t-32 -37.5l-11 -20q-8 -16 -8 -37zM319 307q0 74 60.5 110t171.5 56q10 2 29 2q29 0 36 -16.5t6 -45t-1 -42.5q0 -95 -50.5 -142t-142.5 -47q-47 0 -78 33t-31 92z" />
<glyph unicode="&#xe1;" d="M84 303q0 -143 74.5 -234.5t218.5 -91.5q117 0 207 80q10 10 22 11q12 0 23.5 -8.5t13.5 -22.5v-2q6 -19 20.5 -29t30.5 -10h129q27 0 45.5 21.5t14.5 48.5q-10 51 -11 92v510q0 221 -99 328.5t-253 107.5q-90 0 -155.5 -21.5t-135.5 -81.5q-33 -33 -32 -71q0 -29 22 -56 l39 -49q10 -16 39 -16q35 0 70 29q31 25 54 37t56 12q76 0 110 -50.5t34 -142.5q0 -18 -11.5 -31.5t-25.5 -13.5q-254 -8 -377 -100t-123 -246zM285 1309q0 -25 10 -41q12 -27 35.5 -42.5t52.5 -15.5q18 0 33 7l291 124q27 10 42 35t15 54q0 20 -8 36l-11 21 q-10 23 -32.5 37t-48.5 14q-23 0 -43 -12l-285 -140q-25 -10 -38 -31.5t-13 -45.5zM319 307q0 74 60.5 110t171.5 56q10 2 29 2q29 0 36 -16.5t6 -45t-1 -42.5q0 -95 -50.5 -142t-142.5 -47q-47 0 -78 33t-31 92z" />
<glyph unicode="&#xe2;" horiz-adv-x="991" d="M84 303q0 -143 74.5 -234.5t218.5 -91.5q117 0 207 80q10 10 22 11q12 0 23.5 -8.5t13.5 -22.5v-2q6 -19 20.5 -29t30.5 -10h129q27 0 45.5 21.5t14.5 48.5q-10 51 -11 92v510q0 221 -99 328.5t-253 107.5q-90 0 -155.5 -21.5t-135.5 -81.5q-33 -33 -32 -71q0 -29 22 -56 l39 -49q10 -16 39 -16q35 0 70 29q31 25 54 37t56 12q76 0 110 -50.5t34 -142.5q0 -18 -11.5 -31.5t-25.5 -13.5q-254 -8 -377 -100t-123 -246zM258 1288q0 -35 25 -57q27 -33 65 -33q39 0 64 29l61 61q4 6 25.5 30.5t25.5 37.5h2l56 -68l59 -61q27 -27 61 -27q41 0 68 31 q23 23 23 57q0 39 -27 62l-141 131q-31 20 -60 20h-76q-37 0 -57 -20l-143 -125q-31 -27 -31 -68zM319 307q0 74 60.5 110t171.5 56q10 2 29 2q29 0 36 -16.5t6 -45t-1 -42.5q0 -95 -50.5 -142t-142.5 -47q-47 0 -78 33t-31 92z" />
<glyph unicode="&#xe3;" d="M84 303q0 -143 74.5 -234.5t218.5 -91.5q117 0 207 80q10 10 22 11q12 0 23.5 -8.5t13.5 -22.5v-2q6 -19 20.5 -29t30.5 -10h129q27 0 45.5 21.5t14.5 48.5q-10 51 -11 92v510q0 221 -99 328.5t-253 107.5q-90 0 -155.5 -21.5t-135.5 -81.5q-33 -33 -32 -71q0 -29 22 -56 l39 -49q10 -16 39 -16q35 0 70 29q31 25 54 37t56 12q76 0 110 -50.5t34 -142.5q0 -18 -11.5 -31.5t-25.5 -13.5q-254 -8 -377 -100t-123 -246zM254 1364q0 -31 21.5 -53.5t52.5 -22.5h2q16 0 33.5 8.5t27.5 22.5t27 14q23 0 76 -22q39 -16 70.5 -26.5t66.5 -10.5 q141 0 170 129q2 6 2 16q0 31 -21.5 53.5t-54.5 22.5q-40 0 -63 -31q-6 -14 -27 -14q-20 0 -74 23q-43 18 -73.5 27t-67.5 9q-72 0 -112 -31.5t-54 -95.5q-2 -6 -2 -18zM319 311q0 74 60.5 110t171.5 56q10 2 29 2q29 0 36 -16.5t6 -45t-1 -42.5q0 -94 -50.5 -141.5 t-142.5 -47.5q-47 0 -78 33t-31 92z" />
<glyph unicode="&#xe4;" horiz-adv-x="991" d="M84 303q0 -143 74.5 -234.5t218.5 -91.5q117 0 207 80q10 10 22 11q12 0 23.5 -8.5t13.5 -22.5v-2q6 -19 20.5 -29t30.5 -10h129q27 0 45.5 21.5t14.5 48.5q-10 51 -11 92v510q0 221 -99 328.5t-253 107.5q-90 0 -155.5 -21.5t-135.5 -81.5q-33 -33 -32 -71q0 -29 22 -56 l39 -49q10 -16 39 -16q35 0 70 29q31 25 54 37t56 12q76 0 110 -50.5t34 -142.5q0 -18 -11.5 -31.5t-25.5 -13.5q-254 -8 -377 -100t-123 -246zM229 1317q0 -53 33 -84t88 -31q51 0 86 31t35 84q0 49 -35 81t-86 32q-53 0 -87 -31t-34 -82zM319 307q0 74 60.5 110t171.5 56 q10 2 29 2q29 0 36 -16.5t6 -45t-1 -42.5q0 -95 -50.5 -142t-142.5 -47q-47 0 -78 33t-31 92zM535 1317q0 -53 33.5 -84t88.5 -31q52 0 85.5 31t33.5 84q0 49 -33.5 81t-85.5 32q-53 0 -87.5 -31t-34.5 -82z" />
<glyph unicode="&#xe5;" horiz-adv-x="993" d="M84 303q0 -143 74.5 -234.5t218.5 -91.5q117 0 207 80q10 10 22 11q12 0 23.5 -8.5t13.5 -22.5v-2q6 -19 20.5 -29t30.5 -10h129q27 0 45.5 21.5t14.5 48.5q-10 51 -11 92v510q0 221 -99 328.5t-253 107.5q-90 0 -155.5 -21.5t-135.5 -81.5q-33 -33 -32 -71q0 -29 22 -56 l39 -49q10 -16 39 -16q35 0 70 29q31 25 54 37t56 12q76 0 110 -50.5t34 -142.5q0 -18 -11.5 -31.5t-25.5 -13.5q-254 -8 -377 -100t-123 -246zM279 1409q0 -96 61 -152.5t162 -56.5q96 0 155.5 56.5t59.5 152.5q0 94 -59.5 152.5t-155.5 58.5q-98 0 -160.5 -58.5 t-62.5 -152.5zM319 309q0 74 60.5 110t171.5 56q10 2 29 2q29 0 36 -16.5t6 -45t-1 -42.5q0 -94 -50.5 -141.5t-142.5 -47.5q-47 0 -78 33t-31 92zM428 1409q0 29 21.5 49.5t52.5 20.5q26 0 44.5 -20.5t18.5 -49.5q0 -27 -18.5 -47.5t-44.5 -20.5q-31 0 -52.5 20.5 t-21.5 47.5z" />
<glyph unicode="&#xe6;" horiz-adv-x="1544" d="M84 305q0 -154 83 -242t230 -88q113 0 201 56.5t143 161.5h4q98 -217 345 -218q92 0 160.5 31t123.5 90q33 33 33 80q0 53 -43 90q-27 27 -66 27q-47 0 -77 -37q-57 -57 -131 -57q-90 0 -137.5 49t-61.5 139q-8 29 11.5 53.5t51.5 24.5h435q29 0 48 18.5t19 42.5 q0 582 -377 582q-102 0 -184 -51t-125 -139q-43 94 -114.5 142t-166.5 48q-82 0 -138 -21.5t-122 -85.5q-33 -29 -32 -65q0 -29 22 -62l23 -32q27 -37 53 -37q27 0 55 26q53 57 129 58q145 0 146 -193v-43q-272 0 -406.5 -95t-134.5 -253zM319 303q0 74 61.5 114t170.5 58 q12 2 29 2q29 0 36 -12t6 -28.5t-1 -22.5q0 -101 -53.5 -168.5t-139.5 -67.5q-47 0 -78 33t-31 92zM891 715q45 195 174 194q57 0 92 -48t47 -126q8 -37 -15.5 -64.5t-60.5 -27.5h-174q-29 0 -48 21.5t-15 50.5z" />
<glyph unicode="&#xe7;" horiz-adv-x="870" d="M51 539q0 -186 52.5 -316.5t156.5 -191.5q14 -8 22.5 -25.5t4.5 -38.5l-29 -127q-4 -20 5 -39.5t26 -27.5l30 -17q16 -10 37 -10q20 0 41 10q29 16 54 17q45 0 68.5 -23.5t23.5 -58.5q0 -37 -23.5 -59.5t-68.5 -22.5q-33 0 -54 14q-20 10 -37 10q-27 0 -47 -18 q-30 -22 -30 -59q0 -23 12 -42.5t33 -29.5q53 -29 129 -29q104 0 172.5 56.5t68.5 173.5q0 98 -62.5 154.5t-158.5 56.5q-16 0 -33.5 -3.5t-25.5 -3.5l-6 2l14 50q2 16 16.5 26t30.5 10q193 0 299 123q31 35 31 80q0 53 -43 90l-2 2q-33 27 -76 27q-57 0 -90 -39 q-43 -51 -105 -51q-109 0 -145.5 88t-36.5 242q0 152 39 242.5t143 90.5q61 0 105 -43q33 -39 86 -38q45 0 78 26q43 35 43 90q0 49 -33 82q-102 115 -293 115q-197 0 -309.5 -152.5t-112.5 -412.5z" />
<glyph unicode="&#xe8;" d="M92 539q0 -264 107.5 -411.5t314.5 -147.5q117 0 195.5 37.5t144.5 119.5q16 16 16 39q0 31 -24 51l-72 62q-14 14 -41 14q-35 0 -49 -24q-35 -43 -65.5 -61.5t-75.5 -14.5q-92 8 -134 47t-55 117q-2 6 -2 20q0 31 15.5 50.5t40.5 19.5h436q27 0 45 18.5t18 40.5 q0 264 -83 427t-310 163q-201 0 -311.5 -152.5t-110.5 -414.5zM279 1491q0 -29 15 -53.5t42 -34.5l291 -125q14 -6 32 -6q29 0 52.5 15.5t36.5 41.5q10 16 10 41t-13.5 46.5t-37.5 31.5l-285 139q-23 12 -43 12q-27 0 -49.5 -14t-32.5 -37l-10 -20q-8 -16 -8 -37zM348 700 q0 102 47 157.5t127 55.5q72 0 118 -56t46 -165q0 -27 -13.5 -42t-49.5 -15h-211q-37 0 -50.5 16.5t-13.5 48.5z" />
<glyph unicode="&#xe9;" d="M92 539q0 -264 107.5 -411.5t314.5 -147.5q117 0 195.5 37.5t144.5 119.5q16 16 16 39q0 31 -24 51l-72 62q-14 14 -41 14q-35 0 -49 -24q-35 -43 -65.5 -61.5t-75.5 -14.5q-92 8 -134 47t-55 117q-2 6 -2 20q0 31 15.5 50.5t40.5 19.5h436q27 0 45 18.5t18 40.5 q0 264 -83 427t-310 163q-201 0 -311.5 -152.5t-110.5 -414.5zM340 1296q0 -25 10 -41q12 -26 36 -41.5t52 -15.5q18 0 33 6l291 125q27 10 42 35t15 53q0 20 -8 37l-10 21q-10 23 -33 37t-49 14q-20 0 -43 -13l-285 -139q-25 -10 -38 -31.5t-13 -46.5zM348 700 q0 102 47 157.5t127 55.5q72 0 118 -56t46 -165q0 -27 -13.5 -42t-49.5 -15h-211q-37 0 -50.5 16.5t-13.5 48.5z" />
<glyph unicode="&#xea;" d="M92 539q0 -264 107.5 -411.5t314.5 -147.5q117 0 195.5 37.5t144.5 119.5q16 16 16 39q0 31 -24 51l-72 62q-14 14 -41 14q-35 0 -49 -24q-35 -43 -65.5 -61.5t-75.5 -14.5q-92 8 -134 47t-55 117q-2 6 -2 20q0 31 15.5 50.5t40.5 19.5h436q27 0 45 18.5t18 40.5 q0 264 -83 427t-310 163q-201 0 -311.5 -152.5t-110.5 -414.5zM250 1378q0 -35 24 -57q27 -33 66 -33t63 29l62 61q4 6 25.5 31t25.5 37h2l55 -68l60 -61q27 -27 61 -27q41 0 68 31q23 23 22 57q0 39 -26 62l-142 131q-31 20 -59 20h-76q-37 0 -57 -20l-143 -125 q-31 -27 -31 -68zM348 700q0 102 47 157.5t127 55.5q72 0 118 -56t46 -165q0 -27 -13.5 -42t-49.5 -15h-211q-37 0 -50.5 16.5t-13.5 48.5z" />
<glyph unicode="&#xeb;" d="M92 539q0 -264 107.5 -411.5t314.5 -147.5q117 0 195.5 37.5t144.5 119.5q16 16 16 39q0 31 -24 51l-72 62q-14 14 -41 14q-35 0 -49 -24q-35 -43 -65.5 -61.5t-75.5 -14.5q-92 8 -134 47t-55 117q-2 6 -2 20q0 31 15.5 50.5t40.5 19.5h436q27 0 45 18.5t18 40.5 q0 264 -83 427t-310 163q-201 0 -311.5 -152.5t-110.5 -414.5zM250 1319q0 -49 31.5 -79t80.5 -30q54 0 87.5 30t33.5 79q0 53 -32.5 84t-88.5 31q-49 0 -80.5 -31t-31.5 -84zM348 700q0 102 47 157.5t127 55.5q72 0 118 -56t46 -165q0 -27 -13.5 -42t-49.5 -15h-211 q-37 0 -50.5 16.5t-13.5 48.5zM553 1319q0 -49 32.5 -79t82.5 -30q53 0 85.5 30t32.5 79q0 53 -32.5 84t-85.5 31q-51 0 -83 -31t-32 -84z" />
<glyph unicode="&#xec;" horiz-adv-x="620" d="M61 1421q0 -29 15.5 -53.5t42.5 -34.5l291 -125q16 -6 32 -6q29 0 52.5 15.5t35.5 42.5q11 15 11 40t-13.5 46.5t-38.5 31.5l-284 140q-23 12 -43 12q-27 0 -49.5 -14.5t-32.5 -36.5l-10 -21q-8 -16 -9 -37zM217 92q0 -39 27.5 -66.5t66.5 -27.5h58q39 0 67.5 27.5 t28.5 66.5v891q0 41 -27.5 68.5t-68.5 27.5h-58q-39 0 -66.5 -28.5t-27.5 -67.5v-891z" />
<glyph unicode="&#xed;" horiz-adv-x="505" d="M68 1294q0 -25 10 -41q12 -26 35.5 -41.5t52.5 -15.5q16 0 33 6l290 125q27 10 42.5 34.5t15.5 53.5q0 20 -8 37l-11 21q-10 23 -32.5 37t-49.5 14q-23 0 -43 -13l-284 -139q-25 -10 -38 -31.5t-13 -46.5zM121 92q0 -39 27.5 -66.5t66.5 -27.5h57q39 0 68 27.5t29 66.5 v891q0 41 -28 68.5t-69 27.5h-57q-39 0 -66.5 -28.5t-27.5 -67.5v-891z" />
<glyph unicode="&#xee;" horiz-adv-x="509" d="M-10 1290q0 -35 24 -57q27 -33 66 -33t63 29l62 61q4 6 25.5 31t25.5 37h2l55 -68l60 -61q27 -27 61 -27q41 0 68 31q23 23 22 57q0 39 -26 62l-142 131q-31 20 -59 20h-76q-37 0 -57 -20l-144 -125q-31 -27 -30 -68zM133 92q0 -39 27.5 -66.5t66.5 -27.5h58 q39 0 67.5 27.5t28.5 66.5v891q0 41 -27.5 68.5t-68.5 27.5h-58q-39 0 -66.5 -28.5t-27.5 -67.5v-891z" />
<glyph unicode="&#xef;" horiz-adv-x="649" d="M35 1325q0 -55 34.5 -87t92.5 -32q55 0 92 33t37 86q0 55 -37 90t-92 35q-57 0 -92 -34t-35 -91zM201 92q0 -39 27.5 -66.5t66.5 -27.5h57q39 0 68 27.5t29 66.5v891q0 41 -28 68.5t-69 27.5h-57q-39 0 -66.5 -28.5t-27.5 -67.5v-891zM362 1325q0 -53 36 -86t91 -33 q56 0 90.5 32t34.5 87t-34.5 90t-90.5 35q-55 0 -91 -35t-36 -90z" />
<glyph unicode="&#xf0;" horiz-adv-x="1091" d="M92 530q0 -258 101.5 -406.5t285.5 -148.5q78 0 137.5 29t98.5 78q8 4 12 4q12 0 16 -10v-2q9 -35 36.5 -56.5t64.5 -21.5h16q41 0 72 30.5t31 71.5l-2 58v852q0 205 -113 329l45 47q18 18 18 41q0 18 -16 39q-14 18 -41 19q-29 0 -43 -21l-47 -53q-74 49 -199 70 q-49 4 -86 -29t-37 -84q0 -41 29 -72.5t70 -33.5q39 -6 73 -23l-30 -37q-12 -12 -13 -29q0 -18 15 -32q14 -10 30 -11q18 0 33 11l31 32q33 -59 33 -172h-2q-35 35 -87.5 56.5t-109.5 21.5q-127 0 -222 -65.5t-147.5 -189.5t-52.5 -292zM344 530q0 139 50 231.5t167 92.5 q74 0 112 -57.5t38 -137.5v-266q0 -76 -37 -130t-113 -54q-217 0 -217 321z" />
<glyph unicode="&#xf1;" horiz-adv-x="1097" d="M133 111q0 -47 31 -79t78 -32h28q45 0 78 31.5t33 79.5v585q0 82 43 137.5t121 55.5q90 0 133 -58.5t43 -146.5v-573q0 -47 33.5 -79t81.5 -32h20q47 0 81 31.5t34 79.5v573q0 182 -85 302t-261 120q-158 0 -248 -113q-8 -8 -15.5 -7t-9.5 11q-10 41 -40.5 67t-69.5 26 q-49 0 -79 -34t-30 -85v-41v-819zM268 1335q0 -31 21.5 -53t52.5 -22h2q16 0 33.5 8t28.5 22q10 14 26 15q23 0 76 -23q39 -16 70.5 -26.5t66.5 -10.5q141 0 170 129q2 6 2 17q0 31 -21.5 53t-54.5 22q-40 1 -63 -30q-6 -14 -27 -15q-20 0 -73 23q-43 18 -74 27.5t-68 9.5 q-72 0 -111.5 -32t-54.5 -95q-2 -6 -2 -19z" />
<glyph unicode="&#xf2;" horiz-adv-x="1060" d="M92 547q0 -266 111.5 -416.5t326.5 -150.5q217 0 328 150.5t111 416.5q0 262 -110.5 410.5t-328.5 148.5q-215 0 -326.5 -148.5t-111.5 -410.5zM299 1421q0 -29 15.5 -53.5t41.5 -34.5l291 -125q14 -6 33 -6q29 0 52.5 15.5t35.5 42.5q10 15 10 40t-13 46.5t-38 31.5 l-285 140q-20 12 -43 12q-27 0 -49 -14.5t-33 -36.5l-10 -21q-8 -16 -8 -37zM342 547q0 141 45 239.5t143 98.5q100 0 144.5 -97.5t44.5 -240.5q0 -152 -44 -247t-145 -95q-98 0 -143 101.5t-45 240.5z" />
<glyph unicode="&#xf3;" horiz-adv-x="1060" d="M92 547q0 -266 111.5 -416.5t326.5 -150.5q217 0 328 150.5t111 416.5q0 262 -110.5 410.5t-328.5 148.5q-215 0 -326.5 -148.5t-111.5 -410.5zM301 1307q0 -25 10 -41q13 -27 36.5 -42.5t51.5 -15.5q16 0 33 6l291 125q27 10 42 35t15 53q0 20 -8 37l-10 21 q-10 23 -32.5 37t-49.5 14q-23 0 -43 -12l-285 -140q-25 -10 -38 -31.5t-13 -45.5zM342 547q0 141 45 239.5t143 98.5q100 0 144.5 -97.5t44.5 -240.5q0 -152 -44 -247t-145 -95q-98 0 -143 101.5t-45 240.5z" />
<glyph unicode="&#xf4;" horiz-adv-x="1060" d="M92 547q0 -266 111.5 -416.5t326.5 -150.5q217 0 328 150.5t111 416.5q0 262 -110.5 410.5t-328.5 148.5q-215 0 -326.5 -148.5t-111.5 -410.5zM270 1294q0 -35 25 -57q27 -33 65 -33q39 0 64 29l61 61q4 6 25.5 31t26.5 37h2l55 -68l59 -61q27 -27 62 -27q41 0 67 31 q23 23 23 57q0 39 -27 62l-141 131q-31 20 -59 20h-76q-37 0 -58 -20l-143 -125q-31 -27 -31 -68zM342 547q0 141 45 239.5t143 98.5q100 0 144.5 -97.5t44.5 -240.5q0 -152 -44 -247t-145 -95q-98 0 -143 101.5t-45 240.5z" />
<glyph unicode="&#xf5;" horiz-adv-x="1060" d="M92 547q0 -266 111.5 -416.5t326.5 -150.5q217 0 328 150.5t111 416.5q0 262 -110.5 410.5t-328.5 148.5q-215 0 -326.5 -148.5t-111.5 -410.5zM256 1296q0 -31 21.5 -53t52.5 -22h2q16 0 33.5 8t27.5 22t27 15q23 0 76 -23q39 -16 70.5 -26.5t66.5 -10.5q141 0 170 129 q2 6 2 17q0 31 -21.5 53t-54.5 22q-40 1 -63 -30q-6 -14 -27 -15q-20 0 -74 23q-43 18 -73.5 27.5t-67.5 9.5q-72 0 -112 -32t-54 -95q-2 -6 -2 -19zM342 547q0 141 45 239.5t143 98.5q100 0 144.5 -97.5t44.5 -240.5q0 -152 -44 -247t-145 -95q-98 0 -143 101.5t-45 240.5z " />
<glyph unicode="&#xf6;" horiz-adv-x="1060" d="M92 547q0 -266 111.5 -416.5t326.5 -150.5q217 0 328 150.5t111 416.5q0 262 -110.5 410.5t-328.5 148.5q-215 0 -326.5 -148.5t-111.5 -410.5zM258 1319q0 -53 33 -84t88 -31q51 0 84 31t33 84q0 51 -33 84t-84 33q-53 0 -87 -33t-34 -84zM342 547q0 141 45 239.5 t143 98.5q100 0 144.5 -97.5t44.5 -240.5q0 -152 -44 -247t-145 -95q-98 0 -143 101.5t-45 240.5zM569 1319q0 -53 33 -84t88 -31q51 0 84 31t33 84q0 51 -33 84t-84 33q-55 0 -88 -32t-33 -85z" />
<glyph unicode="&#xf8;" horiz-adv-x="1015" d="M82 553q0 -258 107.5 -403.5t318.5 -145.5t318.5 145.5t107.5 403.5q0 256 -107.5 400.5t-318.5 144.5t-318.5 -144.5t-107.5 -400.5zM328 553q0 141 42 235.5t138 94.5q18 0 47 -9q47 -16 47 -47q0 -16 -12 -39l-193 -372q-12 -25 -30 -25q-20 0 -29 33q-10 41 -10 129z M416 283q0 12 10 36l192 367q16 31 35 31q10 0 17.5 -11.5t9.5 -29.5q10 -96 10 -123q0 -145 -42 -237.5t-140 -92.5q-33 0 -47 6q-45 20 -45 54z" />
<glyph unicode="&#xf9;" horiz-adv-x="1073" d="M127 399q0 -182 78 -302t241 -120q154 0 246 109q6 6 15 6q14 0 14 -14q2 0 3 -3l1 -3q8 -33 33.5 -54.5t58.5 -21.5h33q39 0 67.5 29.5t28.5 70.5q-6 25 -6 54v833q0 39 -27.5 67.5t-66.5 28.5h-58q-39 0 -67.5 -27.5t-28.5 -68.5v-584q0 -90 -40 -146t-122 -56 t-118.5 57t-36.5 145v584q0 39 -28 67.5t-66 28.5h-58q-39 0 -67.5 -27.5t-28.5 -68.5v-584zM297 1419q0 -29 15.5 -53.5t41.5 -34.5l291 -125q16 -6 33 -6q29 0 52.5 15.5t35.5 41.5q10 16 10 41t-13 46.5t-38 31.5l-285 140q-20 12 -43 12q-27 0 -49 -14.5t-33 -36.5 l-10 -21q-8 -16 -8 -37z" />
<glyph unicode="&#xfa;" horiz-adv-x="1073" d="M127 399q0 -182 78 -302t241 -120q154 0 246 109q6 6 15 6q14 0 14 -14q2 0 3 -3l1 -3q8 -33 33.5 -54.5t58.5 -21.5h33q39 0 67.5 29.5t28.5 70.5q-6 25 -6 54v833q0 39 -27.5 67.5t-66.5 28.5h-58q-39 0 -67.5 -27.5t-28.5 -68.5v-584q0 -90 -40 -146t-122 -56 t-118.5 57t-36.5 145v584q0 39 -28 67.5t-66 28.5h-58q-39 0 -67.5 -27.5t-28.5 -68.5v-584zM297 1305q0 -25 10 -41q12 -27 36 -42.5t52 -15.5q18 0 33 6l291 125q27 10 42 35t15 53q0 20 -8 37l-10 21q-10 23 -33 37t-49 14q-20 0 -43 -12l-285 -140q-25 -10 -38 -31.5 t-13 -45.5z" />
<glyph unicode="&#xfb;" horiz-adv-x="1073" d="M127 399q0 -182 78 -302t241 -120q154 0 246 109q6 6 15 6q14 0 14 -14q2 0 3 -3l1 -3q8 -33 33.5 -54.5t58.5 -21.5h33q39 0 67.5 29.5t28.5 70.5q-6 25 -6 54v833q0 39 -27.5 67.5t-66.5 28.5h-58q-39 0 -67.5 -27.5t-28.5 -68.5v-584q0 -90 -40 -146t-122 -56 t-118.5 57t-36.5 145v584q0 39 -28 67.5t-66 28.5h-58q-39 0 -67.5 -27.5t-28.5 -68.5v-584zM268 1303q0 -35 25 -58q27 -33 65 -33q39 0 64 29l61 62q4 6 25.5 30.5t26.5 36.5h2l55 -67l59 -62q27 -27 62 -27q41 0 67 31q23 23 23 58q0 39 -27 61l-141 131q-31 20 -60 21 h-75q-37 0 -58 -21l-143 -125q-31 -27 -31 -67z" />
<glyph unicode="&#xfc;" horiz-adv-x="1073" d="M127 399q0 -182 78 -302t241 -120q154 0 246 109q6 6 15 6q14 0 14 -14q2 0 3 -3l1 -3q8 -33 33.5 -54.5t58.5 -21.5h33q39 0 67.5 29.5t28.5 70.5q-6 25 -6 54v833q0 39 -27.5 67.5t-66.5 28.5h-58q-39 0 -67.5 -27.5t-28.5 -68.5v-584q0 -90 -40 -146t-122 -56 t-118.5 57t-36.5 145v584q0 39 -28 67.5t-66 28.5h-58q-39 0 -67.5 -27.5t-28.5 -68.5v-584zM272 1317q0 -53 33 -84t88 -31q51 0 86 31t35 84q0 49 -35 81t-86 32q-53 0 -87 -31t-34 -82zM578 1317q0 -53 33.5 -84t88.5 -31q52 0 85.5 31t33.5 84q0 49 -33.5 81t-85.5 32 q-53 0 -87.5 -31t-34.5 -82z" />
<glyph unicode="&#xfd;" horiz-adv-x="958" d="M16 975q0 -16 7 -33l325 -917q4 -16 4 -25q0 -6 -4 -35q-37 -131 -119 -131q-12 0 -34 14q-20 8 -31 9q-27 0 -56.5 -20.5t-50.5 -49.5l-4 -6q-14 -20 -14 -47q0 -31 18.5 -59.5t44.5 -39.5q70 -29 150 -28q129 0 210 91t146 302l289 946q4 10 4 33q0 41 -28.5 70.5 t-71.5 29.5h-56q-31 0 -57 -22.5t-37 -57.5l-166 -530q-2 -8 -9 -14t-13 -6q-16 0 -23 20l-155 530q-10 37 -38 58.5t-63 21.5h-63q-43 0 -74 -31.5t-31 -72.5zM260 1303q0 -25 10 -41q13 -27 36.5 -42.5t51.5 -15.5q16 0 33 6l291 125q27 10 42 35t15 53q0 20 -8 37l-10 21 q-10 23 -32.5 37t-49.5 14q-23 0 -43 -12l-285 -140q-25 -10 -38 -31.5t-13 -45.5z" />
<glyph unicode="&#xfe;" horiz-adv-x="1075" d="M147 -315q0 -39 27 -67t66 -28h67q39 0 64.5 27t25.5 68v268v45q2 10 10.5 17.5t18.5 7.5q8 0 16 -7q82 -57 189 -57q168 0 259 151.5t91 409.5q0 264 -96.5 423t-270.5 159q-90 0 -165 -55q-12 -4 -17 -5q-12 0 -21.5 8.5t-13.5 20.5v41v195q0 41 -25.5 68.5t-64.5 27.5 h-67q-39 0 -66 -27.5t-27 -68.5v-1622zM397 367v303q0 78 41 136t115 58q100 0 136 -96t36 -248q0 -156 -36 -247t-136 -91q-78 0 -117 55.5t-39 129.5z" />
<glyph unicode="&#xff;" horiz-adv-x="958" d="M16 975q0 -16 7 -33l325 -917q4 -16 4 -25q0 -6 -4 -35q-37 -131 -119 -131q-12 0 -34 14q-20 8 -31 9q-27 0 -56.5 -20.5t-50.5 -49.5l-4 -6q-14 -20 -14 -47q0 -31 18.5 -59.5t44.5 -39.5q70 -29 150 -28q129 0 210 91t146 302l289 946q4 10 4 33q0 41 -28.5 70.5 t-71.5 29.5h-56q-31 0 -57 -22.5t-37 -57.5l-166 -530q-2 -8 -9 -14t-13 -6q-16 0 -23 20l-155 530q-10 37 -38 58.5t-63 21.5h-63q-43 0 -74 -31.5t-31 -72.5zM193 1315q0 -55 34.5 -87t91.5 -32q56 0 93 33t37 86q0 55 -37 90t-93 35q-57 0 -91.5 -34t-34.5 -91zM520 1315 q0 -53 36 -86t91 -33t90 32t35 87t-35 90t-90 35t-91 -35t-36 -90z" />
<glyph unicode="&#x152;" horiz-adv-x="1843" d="M94 717q0 197 55.5 359.5t172 260t290.5 97.5q225 0 349 -172v71q0 43 29.5 72t74.5 29h555q43 0 72.5 -30t29.5 -71v-55q0 -41 -29.5 -69.5t-72.5 -28.5h-293q-39 0 -69.5 -32t-30.5 -73v-98q0 -39 30.5 -69.5t69.5 -30.5h217q43 0 73 -31t30 -72v-55q0 -41 -30 -71 t-73 -30h-217q-41 0 -70.5 -29.5t-29.5 -72.5v-160q0 -39 30.5 -69.5t69.5 -30.5h293q43 0 72.5 -30.5t29.5 -71.5v-50q0 -45 -29.5 -74.5t-72.5 -29.5h-555q-45 0 -74.5 29.5t-29.5 74.5v66q-123 -170 -349 -170q-174 0 -290.5 96.5t-172 259t-55.5 361.5zM352 717 q0 -219 71 -344t189 -125q121 0 194 125t73 344q0 215 -73 341t-194 126q-119 0 -189.5 -126t-70.5 -341z" />
<glyph unicode="&#x153;" horiz-adv-x="1605" d="M82 547q0 -170 50 -299t141.5 -198.5t207.5 -69.5q117 0 207 72.5t133 197.5q47 -127 136.5 -198.5t195.5 -71.5q88 0 153.5 27.5t120.5 82.5q37 37 37 88q0 59 -47 96l-14 15q-20 18 -49 18q-37 0 -62 -28q-51 -78 -143 -78q-164 0 -197 192q-4 29 14.5 50.5t47.5 21.5 h438q25 0 43 18.5t18 44.5q0 252 -81.5 415t-278.5 163q-111 0 -196 -68.5t-136 -197.5q-47 125 -136 195.5t-204 70.5q-117 0 -208 -68.5t-141 -195.5t-50 -295zM315 547q0 145 39 241.5t138 96.5q178 0 178 -338q0 -154 -39 -247t-139 -93q-98 0 -137.5 98t-39.5 242z M977 711q33 197 174 196q139 0 160 -192q4 -27 -15.5 -49.5t-48.5 -22.5h-217q-27 0 -44 21.5t-9 46.5z" />
<glyph unicode="&#x178;" horiz-adv-x="1167" d="M23 1368q0 -18 8 -33l383 -755q41 -82 41 -185q0 -29 -2 -52.5t-2 -41.5v-199q0 -43 29.5 -72.5t72.5 -29.5h61q41 0 72 29.5t31 72.5v185q0 18 -2 43.5t-2 58.5q0 111 35 178l389 768q8 20 8 29q0 29 -23.5 49.5t-56.5 20.5h-119q-37 0 -57.5 -22.5t-50.5 -80.5 l-230 -416q-8 -14 -14 -24t-10 -10q-8 0 -27 34l-231 416q-29 53 -51.5 78t-59.5 25h-113q-33 0 -56 -18.5t-23 -47.5zM295 1667q0 -55 35 -87t92 -32q55 0 92 33t37 86q0 55 -37 90t-92 35q-57 0 -92 -34t-35 -91zM623 1667q0 -53 35.5 -86t91.5 -33q55 0 89.5 32t34.5 87 t-34.5 90t-89.5 35t-91 -35t-36 -90z" />
<glyph unicode="&#x2c6;" horiz-adv-x="624" d="M45 1354q0 -35 25 -58q27 -33 65 -32q39 0 64 28l61 62q4 6 25.5 30.5t25.5 36.5h2l56 -67l59 -62q27 -27 61 -26q41 0 68 30q23 23 23 58q0 39 -27 61l-141 131q-31 20 -60 21h-76q-37 0 -57 -21l-143 -125q-31 -27 -31 -67z" />
<glyph unicode="&#x2dc;" horiz-adv-x="733" d="M92 1378q0 -31 21.5 -53t52.5 -22h2q16 0 33.5 8t27.5 22t27 15q23 0 76 -23q39 -16 70.5 -26.5t66.5 -10.5q141 0 170 129q2 6 2 17q0 31 -21.5 53t-54.5 22q-40 1 -63 -30q-6 -14 -27 -15q-20 0 -74 23q-43 18 -73.5 27.5t-67.5 9.5q-72 0 -111.5 -32t-54.5 -95 q-2 -6 -2 -19z" />
<glyph unicode="&#x2000;" horiz-adv-x="993" />
<glyph unicode="&#x2001;" horiz-adv-x="1987" />
<glyph unicode="&#x2002;" horiz-adv-x="993" />
<glyph unicode="&#x2003;" horiz-adv-x="1987" />
<glyph unicode="&#x2004;" horiz-adv-x="662" />
<glyph unicode="&#x2005;" horiz-adv-x="496" />
<glyph unicode="&#x2006;" horiz-adv-x="331" />
<glyph unicode="&#x2007;" horiz-adv-x="331" />
<glyph unicode="&#x2008;" horiz-adv-x="248" />
<glyph unicode="&#x2009;" horiz-adv-x="397" />
<glyph unicode="&#x200a;" horiz-adv-x="110" />
<glyph unicode="&#x2010;" horiz-adv-x="917" d="M59 653q0 -51 36 -87t87 -36h553q49 0 86 36t37 87t-37 86t-86 35h-553q-53 0 -88 -34.5t-35 -86.5z" />
<glyph unicode="&#x2011;" horiz-adv-x="917" d="M59 653q0 -51 36 -87t87 -36h553q49 0 86 36t37 87t-37 86t-86 35h-553q-53 0 -88 -34.5t-35 -86.5z" />
<glyph unicode="&#x2012;" horiz-adv-x="917" d="M59 653q0 -51 36 -87t87 -36h553q49 0 86 36t37 87t-37 86t-86 35h-553q-53 0 -88 -34.5t-35 -86.5z" />
<glyph unicode="&#x2013;" horiz-adv-x="757" d="M35 653q0 -51 35.5 -87t87.5 -36h440q49 0 86 36t37 87t-37 86t-86 35h-440q-53 0 -88 -34.5t-35 -86.5z" />
<glyph unicode="&#x2014;" horiz-adv-x="1167" d="M35 653q0 -51 35.5 -87t87.5 -36h852q49 0 86 36t37 87t-37 86t-86 35h-852q-53 0 -88 -34.5t-35 -86.5z" />
<glyph unicode="&#x2018;" horiz-adv-x="421" d="M55 1167q0 -92 43 -148t119 -56q59 0 102 42t43 99q0 61 -37.5 99t-91.5 38q-18 0 -26 -2h-4q6 117 119 137q14 0 25 12.5t11 28.5q0 17 -11 30t-25 13q-82 0 -142.5 -44t-92.5 -111.5t-32 -137.5z" />
<glyph unicode="&#x2019;" horiz-adv-x="421" d="M55 1317q0 -61 38 -99t91 -38q18 0 27 2h4q-6 -117 -119 -138q-14 0 -25.5 -12t-11.5 -28q0 -17 11.5 -30t25.5 -13q82 0 142.5 44t92 111.5t31.5 136.5q0 92 -43 148.5t-118 56.5q-59 0 -102.5 -42t-43.5 -99z" />
<glyph unicode="&#x201a;" horiz-adv-x="522" d="M96 129q0 -61 38 -99t91 -38q18 0 27 2h4q-6 -117 -119 -137q-14 0 -25.5 -12.5t-11.5 -28.5q0 -21 10.5 -31t36.5 -10q80 0 138.5 44t88 111.5t29.5 135.5q0 92 -43 148t-118 56q-59 0 -102.5 -42t-43.5 -99z" />
<glyph unicode="&#x201c;" horiz-adv-x="749" d="M55 1167q0 -92 43 -148t119 -56q59 0 102 42t43 99q0 61 -37.5 99t-91.5 38q-18 0 -26 -2h-4q6 117 119 137q14 0 25 12.5t11 28.5q0 17 -11 30t-25 13q-82 0 -142.5 -44t-92.5 -111.5t-32 -137.5zM389 1167q0 -92 43 -148t119 -56q59 0 102 42t43 99q0 61 -39 99t-92 38 q-18 0 -26 -2h-2q12 119 118 137q14 0 25.5 11.5t11.5 23.5q0 19 -11 33t-28 14q-82 0 -141 -44t-91 -111.5t-32 -135.5z" />
<glyph unicode="&#x201d;" horiz-adv-x="749" d="M57 1315q0 -61 39 -99t92 -38q18 0 27 2h2q-12 -119 -119 -138q-14 0 -25.5 -11t-11.5 -23q0 -19 11.5 -33t27.5 -14q82 0 141.5 44t91.5 111.5t32 134.5q0 92 -43 148.5t-119 56.5q-59 0 -102.5 -42t-43.5 -99zM391 1315q0 -61 38 -99t91 -38q18 0 27 2h4 q-6 -117 -119 -138q-14 0 -25.5 -12t-11.5 -29q0 -16 11.5 -29.5t25.5 -13.5q82 0 142.5 44.5t92 112t31.5 136.5q0 92 -43 148.5t-118 56.5q-59 0 -102.5 -42t-43.5 -99z" />
<glyph unicode="&#x201e;" horiz-adv-x="854" d="M106 129q0 -61 39 -99t93 -38q18 0 26 2h2q-12 -119 -119 -137q-14 0 -25 -11.5t-11 -23.5q0 -19 11 -33t28 -14q82 0 141 44t91 111.5t32 135.5q0 92 -43 148t-119 56q-59 0 -102.5 -42t-43.5 -99zM440 129q0 -61 38 -99t91 -38q18 0 27 2h4q-6 -117 -119 -137 q-14 0 -25.5 -12.5t-11.5 -28.5q0 -17 11.5 -30t25.5 -13q82 0 142.5 44t92.5 111.5t32 137.5q0 92 -43 148t-119 56q-59 0 -102.5 -42t-43.5 -99z" />
<glyph unicode="&#x2022;" horiz-adv-x="921" d="M127 602q0 90 45 167t122 122t167 45t167 -45t122 -122t45 -167t-45 -167t-122 -122t-167 -45t-167 45t-122 122t-45 167z" />
<glyph unicode="&#x2026;" horiz-adv-x="1419" d="M139 141q0 66 48.5 113t113.5 47q66 0 113 -47t47 -113t-47 -113.5t-113 -47.5q-65 0 -113.5 48t-48.5 113zM549 141q0 66 48 113t114 47t112.5 -47t46.5 -113t-47 -113.5t-112 -47.5q-66 0 -114 48t-48 113zM958 141q0 66 48.5 113t113.5 47q66 0 113 -47t47 -113 t-47 -113.5t-113 -47.5q-65 0 -113.5 48t-48.5 113z" />
<glyph unicode="&#x202f;" horiz-adv-x="397" />
<glyph unicode="&#x2039;" horiz-adv-x="565" d="M90 678q0 -41 25 -66l145 -163q33 -33 78 -33q41 0 68 28q37 31 36 76q0 43 -34 74l-70 65q-6 4 -36 31t-44 31v2q8 6 29.5 23.5t48.5 39.5l70 72q31 31 30 70q0 43 -37 80q-25 25 -63 24q-45 0 -74 -33l-147 -168q-25 -31 -25 -65v-88z" />
<glyph unicode="&#x203a;" horiz-adv-x="565" d="M119 520q0 -45 37 -76q27 -29 67 -28q45 0 78 33l145 163q25 25 25 66v88q0 35 -25 65l-147 168q-29 33 -74 33q-39 0 -63 -24q-37 -37 -37 -80q0 -39 31 -70l69 -72q27 -22 48.5 -39.5t29.5 -23.5v-2q-14 -4 -44 -30.5t-36 -31.5l-69 -65q-35 -31 -35 -74z" />
<glyph unicode="&#x205f;" horiz-adv-x="496" />
<glyph unicode="&#x20ac;" horiz-adv-x="1161" d="M31 655q0 -16 10 -27.5t27 -11.5h32q20 0 33.5 -11t13.5 -32q27 -272 151 -438t376 -166q229 0 364 160q31 43 31 90q0 74 -63 119l-7 6q-35 23 -73 23q-63 0 -103 -50q-25 -37 -63.5 -58t-85.5 -21q-109 0 -167 90t-75 241v9q0 16 12.5 27t30.5 11h203q16 0 27.5 11.5 t11.5 27.5t-11.5 26.5t-27.5 10.5h-209q-20 0 -33.5 14.5t-13.5 34.5v4q0 18 12 30.5t31 12.5h213q16 0 27.5 10.5t11.5 26.5t-11.5 27.5t-27.5 11.5h-203q-20 0 -33.5 14.5t-9.5 32.5q16 156 74.5 245t167.5 89q102 0 160 -92q18 -27 46.5 -42t61.5 -15q37 0 70 20l10 10 q31 18 48 49t17 66q0 39 -22 74q-127 197 -391 196q-455 0 -527 -593q0 -23 -16 -38.5t-37 -15.5h-26q-16 0 -26.5 -11t-10.5 -28q0 -14 11 -25.5t26 -11.5h32q16 0 29.5 -12t13.5 -31v-4q0 -20 -14 -34.5t-35 -14.5h-26q-14 0 -25.5 -10t-11.5 -27z" />
<glyph unicode="&#x25fc;" horiz-adv-x="1085" d="M0 0v1085h1085v-1085h-1085z" />
</font>
</defs>
</svg>
